<svg xmlns="http://www.w3.org/2000/svg" xmlns:xlink="http://www.w3.org/1999/xlink" width="1200" zoomAndPan="magnify" viewBox="0 0 900 899.99999" height="1200" preserveAspectRatio="xMidYMid meet" version="1.0"><defs><clipPath id="1b31ca3165"><path d="M 50.164062 0 L 849.664062 0 L 849.664062 900 L 50.164062 900 Z M 50.164062 0 " clip-rule="nonzero"/></clipPath><clipPath id="a3cd730cc4"><path d="M 86 0 L 540 0 L 540 241 L 86 241 Z M 86 0 " clip-rule="nonzero"/></clipPath><clipPath id="f8bfd2cd78"><path d="M 86.992188 85.078125 L 446.867188 -130.671875 L 539.921875 24.546875 L 180.046875 240.292969 Z M 86.992188 85.078125 " clip-rule="nonzero"/></clipPath><clipPath id="2c17c0df55"><path d="M 467 0 L 790 0 L 790 188 L 467 188 Z M 467 0 " clip-rule="nonzero"/></clipPath><clipPath id="bdd1ea5d91"><path d="M 529.347656 -68.167969 L 789.703125 76.890625 L 727.992188 187.652344 L 467.636719 42.59375 Z M 529.347656 -68.167969 " clip-rule="nonzero"/></clipPath><clipPath id="b1546ae0d7"><path d="M 132.667969 771.46875 L 767.332031 771.46875 L 767.332031 900 L 132.667969 900 Z M 132.667969 771.46875 " clip-rule="nonzero"/></clipPath></defs><path fill="#ffeca7" d="M 536.117188 263.460938 L 534.617188 259.519531 L 534.617188 259.707031 L 534.617188 259.332031 C 534.992188 260.460938 535.554688 261.960938 536.117188 263.460938 Z M 238.730469 751.289062 C 237.792969 751.289062 236.855469 751.289062 235.914062 751.101562 C 234.601562 751.101562 233.289062 750.726562 232.164062 750.351562 C 227.847656 748.664062 226.347656 743.410156 225.597656 739.28125 C 225.222656 737.21875 225.035156 734.964844 225.035156 732.902344 C 224.847656 724.273438 225.597656 715.640625 227.285156 707.011719 C 228.035156 702.882812 228.972656 698.753906 229.910156 694.625 C 230.851562 690.5 231.789062 686.371094 232.726562 682.429688 C 233.476562 679.242188 234.226562 676.050781 234.976562 672.863281 C 235.726562 669.671875 236.855469 666.296875 237.792969 662.917969 C 239.667969 656.351562 240.980469 649.785156 242.105469 643.03125 C 243.609375 634.773438 245.109375 626.332031 246.609375 618.074219 C 248.113281 609.820312 250.550781 601.375 252.613281 593.121094 C 253.929688 587.867188 255.242188 582.425781 256.742188 577.171875 C 258.242188 571.917969 260.121094 566.476562 261.996094 561.222656 C 264.433594 553.34375 266.6875 545.464844 268.9375 537.582031 C 271.1875 529.703125 273.441406 522.011719 275.691406 514.128906 C 277.382812 508.3125 278.882812 502.496094 280.195312 496.679688 C 281.695312 490.488281 283.199219 484.109375 285.074219 477.917969 C 285.261719 477.167969 285.636719 476.605469 286.199219 476.042969 C 284.511719 475.105469 282.824219 474.164062 281.132812 473.039062 C 277.195312 470.226562 273.441406 467.222656 269.3125 464.597656 C 266.125 462.53125 262.746094 460.65625 259.554688 458.59375 C 255.992188 456.339844 252.425781 454.277344 248.863281 451.839844 C 245.296875 449.398438 242.296875 447.335938 239.292969 444.707031 C 236.289062 442.082031 232.539062 439.265625 229.535156 436.265625 C 226.535156 433.261719 223.34375 430.261719 220.34375 427.257812 C 217.339844 424.257812 214.339844 421.441406 211.335938 418.441406 C 208.335938 415.4375 205.519531 412.625 202.519531 409.621094 C 199.515625 406.621094 196.890625 404.179688 194.074219 401.367188 C 188.820312 396.488281 184.128906 391.046875 180.003906 385.417969 L 179.253906 384.292969 C 176.625 380.726562 174.5625 376.789062 173.0625 372.660156 C 172.308594 370.785156 171.746094 368.71875 171.183594 366.65625 C 170.433594 363.839844 170.058594 360.839844 170.433594 358.023438 C 170.808594 356.148438 171.746094 354.273438 173.0625 352.769531 C 173.8125 352.019531 174.375 351.457031 175.3125 350.894531 C 176.8125 349.769531 178.3125 348.832031 179.816406 347.894531 C 183.003906 346.203125 186.382812 344.703125 189.945312 343.578125 C 193.511719 342.265625 197.265625 340.949219 200.828125 339.636719 C 204.394531 338.511719 208.148438 337.574219 211.710938 336.449219 C 215.277344 335.320312 219.21875 334.382812 222.96875 333.445312 C 226.722656 332.507812 230.664062 331.945312 234.601562 331.382812 C 237.980469 330.820312 241.542969 330.257812 244.921875 329.691406 C 248.300781 329.128906 251.863281 328.378906 255.242188 327.628906 L 254.679688 327.816406 L 255.992188 327.628906 C 261.996094 326.128906 268 324.441406 274.003906 323.125 C 275.503906 322.75 277.007812 322.375 278.695312 322 C 279.445312 321.8125 280.195312 321.625 280.945312 321.4375 L 281.507812 321.25 L 280.945312 321.4375 C 285.449219 320.3125 290.140625 319.5625 294.832031 318.625 C 299.519531 317.683594 304.023438 316.746094 308.527344 315.621094 L 307.964844 315.808594 L 309.277344 315.621094 L 316.59375 313.933594 L 316.03125 314.121094 C 323.539062 312.433594 330.855469 310.367188 337.984375 307.929688 L 337.609375 308.117188 L 338.359375 307.929688 L 338.546875 307.742188 L 338.734375 307.742188 C 341.550781 306.613281 344.363281 305.488281 347.179688 304.363281 C 349.992188 303.238281 352.996094 301.925781 355.808594 300.421875 C 357.121094 299.671875 358.25 298.921875 359.5625 298.171875 C 359.9375 297.984375 360.125 297.796875 360.5 297.421875 L 360.6875 297.234375 L 360.875 296.859375 C 361.25 296.296875 361.625 295.734375 361.8125 294.980469 C 362.375 293.667969 362.9375 292.355469 363.5 291.230469 C 363.5 291.042969 363.6875 290.855469 363.6875 290.480469 L 363.6875 290.292969 C 363.6875 290.292969 363.6875 290.105469 363.6875 290.105469 C 364.816406 286.351562 366.128906 282.410156 367.441406 278.660156 C 368.753906 274.90625 370.445312 271.152344 371.757812 267.214844 C 374.757812 259.332031 377.949219 251.640625 380.949219 243.949219 C 383.953125 236.441406 386.953125 228.75 390.144531 221.246094 C 393.523438 213.363281 396.898438 205.484375 400.464844 197.605469 C 404.027344 189.722656 407.96875 182.78125 411.722656 175.277344 C 415.472656 167.773438 419.039062 160.640625 423.167969 153.511719 C 425.417969 149.757812 427.667969 146.007812 430.296875 142.441406 C 432.734375 139.066406 435.363281 135.875 438.175781 132.683594 C 441.179688 129.496094 444.367188 126.304688 447.746094 123.492188 C 450.9375 120.675781 454.6875 118.238281 458.441406 116.175781 C 460.691406 115.046875 462.945312 114.296875 465.195312 113.734375 C 467.257812 112.984375 469.699219 113.171875 471.761719 113.921875 C 472.886719 114.484375 473.636719 115.421875 474.203125 116.550781 C 474.953125 117.488281 475.140625 118.613281 474.953125 119.738281 C 477.203125 120.863281 479.078125 122.367188 480.957031 124.054688 C 484.144531 127.058594 486.773438 130.433594 489.210938 134 C 491.652344 137.5625 493.902344 141.128906 495.964844 144.882812 C 498.03125 148.632812 500.09375 152.386719 502.15625 156.140625 C 502.15625 155.949219 501.96875 155.761719 501.96875 155.761719 C 504.035156 159.515625 505.910156 163.457031 507.597656 167.394531 C 509.101562 170.960938 510.601562 174.527344 512.289062 178.089844 C 515.667969 185.972656 519.042969 193.664062 522.234375 201.542969 C 523.921875 205.671875 525.421875 209.613281 526.925781 213.738281 C 526.925781 213.738281 526.925781 213.550781 526.738281 213.550781 L 527.113281 214.867188 L 526.925781 214.304688 C 526.925781 214.492188 527.113281 214.679688 527.113281 214.867188 L 527.113281 214.679688 C 527.113281 214.679688 527.113281 214.867188 527.300781 214.867188 L 527.300781 215.054688 C 527.300781 215.054688 527.300781 214.867188 527.300781 214.867188 C 527.488281 215.429688 527.675781 216.179688 528.050781 216.742188 L 527.863281 216.179688 L 528.613281 218.429688 C 529.738281 221.621094 531.050781 224.808594 532.179688 228 L 532.367188 228.5625 L 532.367188 228.75 C 532.367188 228.9375 532.367188 228.9375 532.554688 229.125 L 532.742188 229.6875 C 533.492188 231.941406 534.429688 234.191406 535.179688 236.441406 L 534.992188 235.878906 C 536.304688 239.445312 537.617188 242.820312 538.746094 246.199219 C 539.871094 249.390625 540.996094 252.578125 542.121094 255.769531 C 542.121094 255.769531 542.121094 255.957031 542.121094 255.957031 L 542.121094 256.144531 L 542.308594 256.519531 C 544 261.023438 545.6875 265.523438 547.375 270.027344 C 548.875 274.53125 550.753906 278.847656 552.816406 282.972656 C 553.378906 284.101562 553.941406 285.039062 554.503906 285.976562 C 556.007812 287.851562 557.507812 289.730469 559.195312 291.417969 C 559.570312 291.792969 559.945312 292.355469 560.507812 292.730469 L 561.261719 293.292969 C 561.636719 293.480469 562.011719 293.667969 562.386719 294.042969 C 564.261719 294.792969 566.136719 295.546875 568.015625 296.109375 L 573.457031 297.796875 C 577.582031 299.109375 581.710938 300.046875 586.027344 300.988281 C 590.34375 301.925781 594.28125 302.488281 598.410156 303.238281 L 598.222656 303.238281 L 599.160156 303.425781 L 598.972656 303.425781 L 599.347656 303.425781 L 601.222656 303.800781 C 605.164062 304.550781 609.105469 304.925781 613.042969 305.300781 C 616.984375 305.675781 621.300781 306.050781 625.429688 306.804688 C 629.742188 307.554688 633.871094 308.492188 638.1875 309.617188 C 642.316406 310.742188 646.253906 312.054688 650.195312 313.371094 C 654.136719 314.683594 658.074219 315.996094 662.203125 317.308594 C 666.332031 318.625 669.894531 319.9375 673.835938 321.25 C 677.402344 322.5625 680.964844 323.6875 684.53125 325.003906 C 688.28125 326.316406 691.847656 327.816406 695.414062 329.503906 C 697.101562 330.257812 698.789062 331.195312 700.292969 332.320312 C 701.980469 333.632812 703.292969 335.507812 704.230469 337.386719 C 705.921875 340.949219 706.859375 344.890625 707.046875 348.832031 C 707.234375 352.769531 706.671875 356.710938 705.355469 360.277344 C 704.042969 364.402344 702.355469 368.53125 700.292969 372.285156 C 698.414062 375.847656 695.976562 379.414062 693.722656 382.792969 C 691.472656 386.167969 689.222656 389.546875 686.78125 392.734375 C 684.34375 395.925781 681.902344 399.113281 679.277344 402.492188 C 676.648438 405.871094 674.023438 409.058594 671.398438 412.4375 C 668.957031 415.4375 666.332031 418.253906 663.328125 420.878906 C 660.515625 423.320312 657.511719 425.757812 654.699219 428.195312 L 655.074219 427.820312 C 653.007812 429.699219 650.945312 431.761719 648.882812 433.824219 C 646.816406 435.890625 644.941406 437.953125 642.878906 439.828125 C 638.5625 443.957031 634.058594 447.523438 629.554688 451.464844 C 628.242188 454.464844 626.929688 457.46875 625.804688 460.65625 C 625.429688 461.96875 624.867188 463.472656 624.675781 464.785156 C 624.488281 466.097656 624.113281 467.972656 623.738281 469.476562 C 623.363281 472.101562 622.988281 474.917969 622.800781 477.542969 C 622.613281 480.167969 622.425781 483.359375 622.238281 486.363281 C 622.238281 490.488281 622.238281 494.617188 622.238281 498.746094 C 622.238281 502.871094 622.425781 507.1875 622.613281 511.503906 C 622.800781 520.132812 622.988281 528.578125 623.175781 537.207031 C 623.363281 545.839844 623.738281 554.28125 624.113281 562.726562 C 624.300781 567.039062 624.488281 571.167969 624.675781 575.484375 C 624.867188 579.800781 624.867188 584.113281 624.867188 588.429688 C 624.867188 592.746094 624.867188 596.6875 625.054688 600.8125 C 625.242188 604.941406 625.429688 609.445312 625.617188 613.761719 C 626.179688 622.390625 626.554688 631.019531 627.117188 639.652344 C 627.679688 647.90625 628.054688 656.351562 628.429688 664.605469 C 628.804688 672.863281 629.179688 681.117188 629.367188 689.375 C 629.554688 697.628906 629.367188 705.695312 628.992188 713.765625 C 628.992188 717.703125 628.429688 721.832031 627.679688 725.773438 C 627.304688 727.460938 626.554688 728.960938 625.617188 730.277344 C 624.300781 731.964844 622.613281 733.277344 620.550781 733.839844 C 618.859375 734.402344 617.171875 734.589844 615.484375 734.589844 C 613.421875 734.589844 611.355469 734.402344 609.480469 733.839844 C 601.035156 732.152344 593.53125 727.648438 586.027344 723.519531 C 582.460938 721.644531 578.898438 719.582031 575.707031 717.140625 C 572.328125 714.703125 569.140625 712.074219 565.949219 709.449219 C 562.761719 706.824219 559.195312 704.570312 556.007812 701.945312 C 552.816406 699.316406 549.4375 696.128906 546.25 693.125 C 543.058594 690.125 540.058594 687.496094 537.054688 684.683594 C 534.054688 681.867188 530.863281 679.242188 527.863281 676.425781 L 527.113281 675.863281 L 527.300781 675.863281 L 525.984375 674.738281 C 522.046875 671.359375 517.730469 668.171875 513.789062 664.792969 L 513.601562 664.605469 L 513.414062 664.605469 L 512.851562 664.042969 C 511.539062 662.917969 510.226562 661.792969 509.101562 660.667969 C 506.660156 658.601562 504.222656 656.539062 501.59375 654.664062 C 498.59375 652.597656 495.777344 650.535156 492.964844 648.46875 C 490.148438 646.40625 487.148438 644.53125 484.332031 642.464844 L 479.453125 641.152344 C 477.953125 640.214844 476.453125 639.089844 474.953125 637.964844 C 474.390625 637.589844 474.015625 637.027344 473.824219 636.460938 L 473.636719 636.460938 L 472.699219 636.648438 C 471.761719 636.835938 471.011719 637.214844 470.074219 637.402344 C 467.445312 638.527344 464.820312 639.652344 462.378906 640.964844 C 459.941406 642.277344 457.128906 643.40625 454.3125 644.34375 C 449.058594 646.40625 443.617188 648.09375 438.175781 649.785156 L 437.800781 649.785156 L 437.425781 649.972656 L 437.238281 649.972656 L 436.863281 650.160156 L 436.675781 650.160156 C 435.550781 650.535156 434.425781 651.097656 433.109375 651.660156 C 429.546875 653.535156 426.355469 655.976562 422.980469 658.039062 C 419.601562 660.101562 415.660156 662.730469 411.910156 664.792969 C 408.15625 666.859375 404.78125 668.546875 401.027344 670.421875 C 397.085938 672.488281 393.148438 674.550781 389.207031 676.425781 C 382.640625 679.429688 376.074219 682.429688 369.503906 685.621094 C 362.9375 688.808594 356.746094 692 350.367188 695.191406 L 350.742188 695.003906 L 348.304688 696.316406 L 347.929688 696.316406 C 340.421875 700.253906 333.105469 704.382812 325.789062 708.511719 C 318.472656 712.640625 311.152344 716.953125 303.835938 721.082031 C 301.398438 722.394531 298.957031 723.707031 296.519531 725.023438 L 296.894531 724.835938 L 295.769531 725.398438 L 295.207031 725.773438 L 294.265625 726.148438 L 294.644531 725.960938 C 290.703125 728.023438 286.761719 730.089844 282.824219 732.152344 C 278.882812 734.214844 274.941406 736.09375 271 738.15625 L 271.378906 737.96875 L 266.5 740.40625 L 266.3125 740.40625 L 265.9375 740.59375 C 262.371094 742.472656 258.804688 744.160156 255.054688 746.035156 C 253.363281 746.785156 251.675781 747.726562 249.800781 748.289062 C 248.113281 749.039062 246.234375 749.601562 244.546875 750.164062 C 242.859375 750.539062 241.167969 750.726562 239.292969 750.726562 Z M 238.730469 751.289062 " fill-opacity="1" fill-rule="nonzero"/><g clip-path="url(#1b31ca3165)"><path fill="#ff8200" d="M 274.378906 467.597656 C 273.253906 466.660156 272.128906 465.910156 271 464.972656 C 269.875 464.035156 268.9375 463.472656 267.8125 462.90625 C 265.5625 461.40625 263.308594 459.90625 261.058594 458.40625 C 256.742188 455.402344 252.800781 452.027344 248.488281 449.210938 C 246.046875 447.710938 243.609375 446.398438 241.355469 444.707031 C 239.105469 443.019531 236.667969 441.332031 234.226562 439.640625 C 231.789062 437.953125 229.722656 436.265625 227.472656 434.578125 C 225.222656 432.886719 222.96875 430.824219 220.71875 428.949219 L 220.90625 429.136719 L 219.78125 428.195312 L 220.15625 428.574219 C 216.964844 425.757812 213.589844 423.320312 210.210938 420.691406 C 206.832031 418.066406 204.019531 415.625 200.640625 413.375 C 198.953125 412.0625 197.265625 410.9375 195.574219 409.808594 C 193.886719 408.683594 192.199219 407.371094 190.699219 406.058594 C 187.695312 403.617188 184.695312 400.804688 181.878906 397.988281 C 180.378906 396.488281 178.878906 394.988281 177.375 393.488281 C 175.875 391.984375 174.375 390.671875 173.0625 389.171875 C 171.746094 387.671875 170.058594 385.792969 168.746094 383.917969 C 167.433594 382.230469 166.304688 380.351562 165.367188 378.476562 C 165.367188 378.476562 165.367188 378.476562 165.367188 378.664062 L 165.367188 378.289062 C 164.242188 376.226562 163.679688 374.160156 163.492188 371.910156 C 163.304688 369.65625 163.867188 367.21875 164.804688 365.15625 C 166.679688 361.777344 169.308594 358.777344 172.6875 356.710938 C 175.6875 354.648438 178.691406 352.769531 181.878906 351.269531 C 185.445312 349.582031 189.007812 348.269531 192.761719 346.953125 L 193.136719 346.765625 L 192.949219 346.765625 L 200.265625 344.140625 L 200.078125 344.140625 L 200.828125 343.953125 C 204.582031 342.640625 208.335938 340.949219 212.085938 339.636719 C 215.839844 338.324219 219.96875 337.199219 224.09375 336.074219 C 231.976562 334.007812 239.855469 331.570312 247.546875 328.941406 C 255.242188 326.316406 263.121094 323.5 271 320.875 C 279.070312 318.25 287.136719 315.808594 295.394531 314.121094 L 301.210938 312.808594 C 309.464844 310.929688 317.722656 308.492188 325.976562 306.425781 C 334.230469 304.363281 342.488281 302.488281 350.742188 300.421875 C 353.183594 299.671875 355.621094 299.109375 358.058594 298.734375 C 359.9375 298.359375 361.8125 299.109375 362.75 300.800781 C 363.5 301.925781 363.5 303.425781 362.9375 304.550781 C 362.75 304.925781 362.5625 305.488281 362.1875 305.675781 C 361.4375 305.863281 360.5 306.050781 359.75 306.425781 L 358.25 306.804688 C 357.871094 306.804688 357.683594 306.992188 357.496094 306.992188 C 349.242188 309.054688 341.175781 310.929688 333.105469 312.996094 C 328.976562 313.933594 324.851562 315.058594 320.910156 315.996094 C 316.96875 316.933594 312.84375 318.25 308.714844 319.1875 C 304.585938 320.125 300.082031 321.25 295.769531 322.1875 L 296.332031 322 C 288.261719 323.878906 280.195312 326.128906 272.316406 328.753906 C 264.433594 331.382812 256.742188 334.195312 248.863281 336.824219 C 243.421875 338.699219 237.792969 340.386719 232.351562 342.078125 C 226.910156 343.765625 220.90625 345.078125 215.464844 346.953125 C 211.335938 348.457031 207.207031 350.144531 203.082031 351.644531 L 203.644531 351.457031 L 202.519531 351.832031 L 202.894531 351.644531 L 195.953125 354.273438 L 195.574219 354.460938 L 191.261719 355.960938 L 191.449219 355.960938 L 191.261719 355.960938 L 190.886719 356.148438 L 191.074219 356.148438 C 188.632812 357.085938 186.195312 358.023438 183.941406 359.339844 C 181.878906 360.464844 180.003906 361.589844 178.125 362.902344 C 177.1875 363.652344 176.0625 364.402344 175.125 365.15625 C 174.75 365.53125 174.1875 366.09375 173.8125 366.46875 C 173.4375 366.84375 173.0625 367.40625 172.875 367.78125 C 172.6875 368.15625 172.308594 368.71875 172.121094 369.09375 L 171.933594 369.28125 C 171.933594 369.46875 171.933594 369.65625 171.746094 369.84375 C 171.558594 370.03125 171.746094 370.410156 171.746094 370.785156 C 171.746094 371.160156 171.746094 371.347656 171.746094 371.722656 L 171.746094 372.097656 C 171.933594 372.472656 171.933594 372.847656 172.121094 373.222656 C 172.308594 373.597656 172.496094 374.347656 172.875 374.910156 L 173.0625 375.285156 L 173.0625 375.660156 C 173.0625 375.660156 173.25 375.847656 173.25 375.847656 C 173.25 375.847656 173.25 375.660156 173.25 375.660156 C 173.8125 376.601562 174.375 377.539062 174.9375 378.476562 C 176.0625 379.976562 177.1875 381.476562 178.503906 382.980469 C 180.941406 385.605469 183.566406 388.046875 186.007812 390.671875 C 187.320312 391.984375 188.632812 393.488281 190.136719 394.800781 C 191.636719 396.113281 192.949219 397.425781 194.261719 398.550781 C 196.703125 400.617188 199.140625 402.679688 201.769531 404.367188 C 204.394531 406.058594 207.398438 408.308594 210.210938 410.371094 C 213.023438 412.4375 215.464844 414.5 218.089844 416.753906 C 220.71875 419.003906 223.53125 421.066406 226.160156 423.320312 L 228.222656 425.007812 C 230.851562 427.257812 233.664062 429.511719 236.480469 431.574219 C 239.292969 433.636719 242.296875 436.078125 245.296875 438.140625 C 248.300781 440.207031 251.488281 441.894531 254.492188 443.957031 C 257.492188 446.023438 259.933594 448.085938 262.746094 450.148438 C 265.5625 452.214844 268.1875 454.089844 270.8125 455.777344 C 272.316406 456.714844 273.628906 457.65625 274.941406 458.59375 C 276.253906 459.53125 277.945312 460.84375 279.445312 461.96875 C 281.132812 463.285156 281.507812 465.722656 280.195312 467.597656 C 279.445312 468.722656 277.945312 469.289062 276.628906 469.101562 C 275.878906 468.535156 275.128906 468.160156 274.378906 467.597656 Z M 233.851562 756.730469 C 231.976562 755.980469 230.472656 754.855469 229.347656 753.167969 C 228.597656 751.664062 228.222656 750.164062 227.847656 748.664062 L 228.035156 749.226562 C 227.285156 746.035156 226.722656 742.847656 226.160156 739.65625 C 225.972656 737.96875 225.785156 736.46875 225.597656 734.777344 C 225.597656 733.089844 225.597656 731.402344 225.597656 729.710938 C 225.410156 726.335938 225.597656 722.769531 225.972656 719.394531 C 226.347656 716.203125 226.535156 712.828125 226.722656 709.636719 L 226.722656 708.699219 L 226.722656 709.261719 C 226.722656 707.199219 226.722656 705.132812 226.910156 703.070312 C 227.097656 701.007812 227.285156 699.128906 227.660156 697.253906 C 228.222656 693.125 228.972656 688.808594 229.535156 684.683594 C 230.097656 680.554688 230.664062 676.425781 231.226562 672.300781 C 231.789062 668.171875 232.351562 664.417969 232.914062 660.480469 C 233.476562 656.539062 233.851562 652.785156 234.226562 649.035156 C 234.601562 645.28125 235.164062 641.152344 235.914062 637.027344 L 236.101562 636.460938 L 236.101562 635.523438 C 236.855469 631.398438 237.792969 627.457031 238.542969 623.328125 C 239.292969 619.199219 240.230469 615.074219 241.167969 611.132812 C 242.105469 607.191406 243.046875 603.066406 243.984375 599.125 C 244.921875 595.183594 245.484375 590.871094 246.421875 586.742188 C 247.359375 582.613281 248.113281 578.484375 248.863281 574.359375 C 249.613281 570.230469 250.550781 566.289062 251.488281 562.164062 C 252.425781 558.035156 253.363281 554.28125 254.117188 550.15625 C 254.867188 546.027344 255.804688 542.085938 256.742188 537.957031 C 258.429688 530.078125 260.121094 522.199219 261.621094 514.316406 C 262.371094 510.191406 263.308594 506.25 264.433594 502.308594 C 265.5625 498.371094 266.3125 494.242188 267.25 490.300781 C 268.375 485.609375 269.5 480.921875 270.625 476.230469 C 271.941406 471.726562 273.441406 467.410156 275.128906 463.285156 C 275.878906 461.21875 278.320312 460.09375 280.382812 461.03125 C 282.445312 461.96875 283.574219 464.222656 282.632812 466.285156 C 281.507812 468.910156 280.570312 471.726562 279.632812 474.539062 C 277.195312 482.234375 275.503906 490.300781 273.628906 498.183594 C 272.691406 502.121094 271.566406 506.0625 270.625 510.003906 C 269.6875 513.941406 268.9375 518.257812 268 522.386719 C 266.5 530.078125 264.808594 537.769531 263.121094 545.652344 C 262.183594 549.777344 261.621094 553.90625 260.683594 557.847656 C 259.746094 561.789062 258.804688 565.726562 257.867188 569.667969 C 256.929688 573.609375 256.367188 577.734375 255.617188 581.675781 C 254.867188 585.617188 253.929688 590.117188 253.175781 594.246094 C 252.425781 598.375 251.488281 602.691406 250.550781 607.003906 C 249.613281 611.320312 248.675781 614.886719 247.734375 619.011719 C 247.171875 622.015625 246.609375 624.828125 245.859375 627.832031 C 245.109375 630.832031 244.546875 634.023438 243.984375 637.023438 L 243.796875 637.964844 C 243.796875 638.152344 243.796875 638.339844 243.609375 638.527344 L 243.609375 638.714844 C 242.296875 646.78125 241.542969 654.851562 240.605469 663.105469 C 240.042969 667.046875 239.480469 670.984375 238.917969 675.113281 C 238.355469 679.242188 237.792969 683.179688 237.230469 687.308594 C 236.480469 693.3125 235.164062 699.316406 234.789062 705.507812 C 234.789062 707.011719 234.789062 708.511719 234.601562 710.199219 L 234.601562 709.636719 C 234.414062 712.261719 234.414062 714.703125 234.226562 717.328125 C 234.039062 719.582031 233.664062 721.832031 233.664062 724.085938 C 233.664062 726.335938 233.664062 728.398438 233.664062 730.652344 C 233.664062 732.902344 233.664062 734.589844 233.851562 736.65625 C 234.226562 740.40625 234.976562 744.160156 235.914062 747.914062 L 235.914062 747.539062 C 235.914062 747.726562 236.101562 748.101562 236.101562 748.289062 L 235.914062 747.726562 C 236.101562 748.289062 236.289062 749.039062 236.480469 749.601562 L 236.855469 749.789062 L 237.792969 750.164062 L 238.355469 750.351562 C 239.105469 750.539062 239.667969 750.539062 240.417969 750.539062 C 241.355469 750.539062 242.484375 750.539062 243.421875 750.539062 L 245.859375 750.164062 C 247.921875 749.601562 249.988281 749.039062 252.238281 748.289062 C 256.179688 746.785156 260.121094 745.097656 264.058594 743.597656 C 265.9375 742.847656 267.8125 742.097656 269.875 741.347656 C 271.941406 740.59375 273.628906 739.65625 275.503906 738.71875 C 279.632812 736.65625 283.574219 734.402344 287.699219 732.152344 C 291.828125 729.902344 296.332031 727.835938 300.460938 725.773438 L 300.648438 725.585938 L 300.460938 725.585938 L 300.648438 725.585938 L 300.835938 725.398438 L 301.585938 725.023438 L 301.210938 725.023438 L 301.398438 724.835938 C 301.585938 724.835938 301.773438 724.648438 301.773438 724.648438 L 301.960938 724.648438 L 304.210938 723.519531 L 303.835938 723.707031 C 312.09375 719.394531 320.722656 715.453125 328.976562 711.324219 L 330.105469 710.761719 L 330.480469 710.386719 L 330.667969 710.386719 L 330.292969 710.574219 L 334.230469 708.511719 L 333.855469 708.699219 L 335.921875 707.574219 L 335.546875 707.761719 C 339.484375 705.695312 343.425781 703.820312 347.554688 701.945312 C 351.117188 700.066406 354.496094 697.816406 357.871094 695.753906 C 361.25 693.6875 364.816406 691.625 368.191406 689.75 C 371.570312 687.871094 374.945312 685.808594 378.324219 683.933594 C 381.703125 682.054688 385.265625 680.179688 388.832031 678.117188 C 394.648438 674.925781 400.277344 671.734375 406.09375 668.734375 C 409.09375 667.234375 411.910156 665.730469 414.910156 664.230469 C 417.914062 662.730469 420.539062 661.605469 423.167969 660.292969 C 425.792969 658.976562 428.234375 657.664062 430.671875 656.351562 C 433.109375 655.039062 435.550781 653.535156 437.988281 652.222656 C 440.429688 650.910156 443.054688 649.597656 445.683594 648.46875 C 448.308594 647.34375 451.3125 646.21875 453.9375 644.90625 L 454.125 644.71875 L 455.0625 644.15625 C 456.375 643.03125 457.691406 641.902344 459.191406 640.777344 C 460.691406 639.652344 462.191406 638.714844 463.882812 637.777344 C 465.945312 636.835938 468.199219 637.777344 469.136719 639.839844 C 469.511719 640.777344 469.511719 641.902344 469.136719 642.839844 C 468.761719 643.78125 468.007812 644.53125 467.070312 645.09375 C 466.507812 645.46875 465.945312 645.84375 465.382812 646.03125 C 464.257812 646.78125 463.132812 647.71875 462.191406 648.660156 C 461.441406 649.222656 460.878906 649.785156 460.128906 650.347656 C 459.378906 650.910156 458.628906 651.472656 457.691406 651.847656 L 457.503906 652.035156 L 457.316406 652.035156 L 457.503906 652.035156 C 455.0625 653.347656 452.4375 654.285156 449.996094 655.226562 C 447.558594 656.164062 445.121094 657.476562 442.679688 658.789062 L 443.054688 658.601562 C 440.804688 659.726562 438.550781 661.230469 436.113281 662.355469 C 433.675781 663.480469 431.421875 664.792969 429.171875 666.109375 C 424.292969 668.734375 419.414062 670.796875 414.535156 673.238281 C 407.40625 676.988281 400.652344 680.929688 393.523438 684.683594 C 390.144531 686.558594 386.578125 688.433594 383.203125 690.3125 C 379.824219 692.1875 376.449219 694.25 372.882812 696.316406 C 367.441406 699.316406 362 702.507812 356.746094 705.882812 C 353.933594 707.574219 351.117188 709.261719 348.117188 710.574219 C 345.113281 711.886719 342.113281 713.390625 339.109375 715.078125 L 339.296875 715.078125 L 337.796875 715.828125 L 337.421875 716.203125 L 337.796875 716.203125 L 337.609375 716.203125 L 337.421875 716.390625 L 337.609375 716.390625 L 334.230469 718.078125 L 334.042969 718.269531 L 333.855469 718.457031 L 334.042969 718.457031 L 333.105469 718.082031 C 325.039062 722.207031 316.96875 725.960938 308.902344 729.902344 L 307.589844 730.652344 L 307.777344 730.652344 L 305.902344 731.589844 L 305.148438 731.964844 C 304.773438 732.152344 304.398438 732.339844 304.023438 732.527344 L 304.210938 732.527344 L 303.648438 732.714844 L 303.835938 732.714844 C 300.460938 734.402344 297.082031 736.09375 293.703125 737.78125 C 290.328125 739.46875 286.386719 741.722656 282.824219 743.597656 C 279.257812 745.660156 275.503906 747.351562 271.753906 749.039062 C 267.8125 750.539062 263.871094 752.226562 259.933594 753.730469 C 256.179688 755.417969 252.238281 756.730469 248.113281 757.667969 C 245.671875 758.230469 243.046875 758.605469 240.605469 758.605469 C 238.167969 758.417969 235.914062 757.855469 233.851562 756.730469 Z M 617.359375 743.035156 C 611.730469 743.035156 606.664062 739.84375 601.601562 737.40625 L 601.976562 737.59375 C 599.722656 736.65625 597.660156 735.339844 595.59375 734.214844 L 589.96875 731.027344 C 587.527344 729.710938 585.089844 728.210938 582.648438 726.710938 C 580.210938 725.210938 577.394531 723.332031 574.769531 721.644531 L 573.644531 720.894531 L 573.832031 720.894531 L 568.390625 717.328125 C 561.636719 713.015625 554.878906 708.511719 548.3125 703.632812 C 545.125 701.195312 541.933594 698.753906 538.746094 696.503906 C 535.554688 694.25 531.800781 691.8125 528.238281 689.5625 C 524.671875 687.308594 521.296875 684.683594 517.730469 682.054688 C 514.164062 679.429688 510.789062 677.175781 507.410156 674.738281 C 500.65625 669.859375 494.277344 664.792969 487.523438 659.914062 C 483.769531 657.101562 480.019531 654.476562 476.265625 651.660156 C 474.390625 650.347656 472.511719 648.847656 470.824219 647.53125 L 468.007812 645.46875 C 467.632812 645.09375 467.070312 644.71875 466.695312 644.34375 C 466.320312 644.15625 465.945312 643.78125 465.570312 643.40625 L 465.382812 643.21875 C 464.257812 642.089844 463.882812 640.402344 464.445312 638.902344 C 465.007812 637.777344 465.945312 636.835938 467.070312 636.460938 C 468.195312 636.085938 469.511719 636.460938 470.449219 637.027344 C 470.824219 637.214844 471.011719 637.589844 471.386719 637.777344 C 477.765625 643.03125 484.519531 647.71875 491.085938 652.597656 C 497.65625 657.476562 504.222656 662.542969 510.976562 667.421875 C 514.351562 669.859375 517.917969 672.300781 521.296875 674.738281 C 524.671875 677.175781 528.050781 679.804688 531.613281 682.054688 C 535.179688 684.496094 538.558594 686.746094 542.121094 688.996094 C 545.6875 691.25 548.6875 693.6875 551.878906 696.128906 C 554.503906 698.003906 557.132812 699.878906 559.757812 701.757812 C 562.386719 703.632812 565.199219 705.507812 567.828125 707.199219 L 567.453125 707.011719 C 570.828125 709.074219 574.207031 711.324219 577.582031 713.578125 L 578.332031 713.953125 L 578.144531 713.953125 L 585.652344 718.832031 C 589.214844 721.082031 592.78125 723.144531 596.347656 725.210938 C 599.160156 726.898438 601.976562 728.585938 604.789062 729.902344 C 606.289062 730.652344 607.792969 731.402344 609.292969 732.152344 C 610.792969 732.902344 612.667969 733.652344 614.359375 734.214844 L 615.671875 734.589844 L 616.984375 734.777344 L 618.109375 734.777344 C 618.296875 734.777344 618.671875 734.777344 618.863281 734.589844 L 619.238281 734.589844 L 619.613281 734.214844 L 619.800781 733.839844 L 620.175781 733.277344 C 620.363281 732.527344 620.738281 731.964844 620.925781 731.214844 C 621.300781 729.902344 621.675781 728.773438 621.863281 727.460938 C 622.613281 723.332031 622.800781 719.207031 623.550781 715.078125 C 624.300781 710.574219 624.679688 706.070312 625.054688 701.570312 L 625.054688 701.195312 C 625.054688 701.007812 625.054688 701.007812 625.054688 700.820312 C 625.054688 701.007812 625.054688 701.007812 625.054688 701.195312 L 625.054688 701.007812 C 625.242188 696.878906 625.429688 692.75 625.617188 688.621094 C 625.804688 684.496094 625.617188 680.742188 625.617188 676.800781 C 625.617188 672.863281 625.804688 668.546875 625.992188 664.605469 C 626.179688 660.667969 626.179688 656.351562 626.179688 652.410156 C 626.179688 648.46875 626.367188 644.15625 626.554688 640.027344 C 626.742188 635.898438 626.742188 631.773438 626.742188 627.832031 C 626.742188 623.890625 626.742188 619.578125 626.929688 615.636719 C 627.117188 611.695312 627.117188 607.378906 627.117188 603.253906 C 627.117188 599.125 626.929688 594.996094 626.929688 591.058594 C 626.929688 587.117188 627.117188 582.613281 627.304688 578.484375 C 627.492188 574.359375 627.117188 570.417969 627.117188 566.476562 C 627.117188 562.539062 626.929688 558.410156 626.742188 554.28125 C 626.554688 550.15625 626.742188 545.839844 626.742188 541.523438 C 626.742188 537.207031 627.117188 533.644531 627.117188 529.515625 C 627.117188 525.386719 627.304688 521.261719 627.304688 517.132812 C 627.304688 513.003906 627.117188 509.25 626.742188 505.3125 C 626.742188 504.9375 626.742188 504.375 626.742188 504 C 626.554688 502.683594 626.554688 501.183594 626.367188 499.871094 C 626.179688 498.558594 625.992188 496.492188 625.992188 494.804688 C 625.804688 491.988281 625.804688 489.175781 625.804688 486.171875 C 625.804688 483.171875 625.992188 480.355469 625.992188 477.355469 C 625.992188 474.351562 625.992188 470.976562 626.179688 467.972656 C 626.554688 465.722656 628.617188 464.410156 630.871094 464.785156 C 632.746094 465.160156 634.246094 466.847656 634.058594 468.910156 L 634.058594 469.664062 C 634.058594 471.726562 634.058594 473.601562 634.058594 475.667969 C 634.058594 477.917969 633.871094 480.355469 633.683594 482.609375 C 633.496094 486.925781 633.683594 491.238281 633.871094 495.554688 C 634.058594 497.617188 634.246094 499.496094 634.621094 501.558594 C 634.996094 503.621094 634.996094 505.6875 634.996094 507.75 C 635.183594 511.878906 635.371094 515.820312 635.371094 519.945312 C 635.371094 524.074219 635.371094 528.015625 635.183594 532.140625 C 634.996094 536.269531 634.808594 540.210938 634.808594 544.339844 C 634.621094 552.40625 634.996094 560.472656 635.183594 568.730469 C 635.371094 572.855469 635.371094 576.984375 635.371094 581.113281 C 635.371094 585.242188 635.183594 589.367188 635.183594 593.496094 C 635.183594 597.625 635.371094 601.5625 635.371094 605.691406 C 635.371094 609.820312 635.183594 613.757812 634.996094 617.699219 C 634.808594 621.640625 634.996094 625.769531 634.996094 629.894531 C 634.996094 634.023438 634.808594 638.527344 634.621094 642.839844 C 634.433594 646.78125 634.433594 650.722656 634.246094 654.664062 C 634.058594 658.601562 634.246094 662.917969 634.058594 667.234375 C 633.683594 675.300781 634.058594 683.558594 633.683594 691.625 C 633.496094 694.8125 633.496094 698.191406 633.308594 701.382812 C 633.308594 701.945312 633.308594 702.507812 633.308594 703.070312 C 633.121094 707.011719 632.746094 710.949219 632.183594 714.890625 C 631.996094 716.765625 631.621094 718.832031 631.433594 720.894531 C 631.246094 722.957031 631.058594 724.648438 630.683594 726.523438 C 630.304688 730.839844 629.179688 734.964844 627.117188 738.71875 C 625.804688 740.96875 623.738281 742.660156 621.113281 743.410156 C 619.800781 743.785156 618.671875 743.785156 617.359375 743.785156 Z M 627.867188 463.847656 C 628.054688 462.71875 628.429688 461.59375 629.367188 461.03125 C 629.742188 460.65625 630.117188 460.46875 630.683594 460.28125 L 631.246094 459.53125 C 632.371094 458.21875 633.683594 456.714844 634.808594 455.402344 C 637.0625 452.589844 639.3125 449.585938 641.5625 446.773438 C 643.816406 443.957031 646.441406 440.769531 649.070312 437.765625 C 651.507812 435.140625 653.761719 432.511719 655.824219 429.699219 C 657.699219 427.257812 659.386719 424.632812 661.265625 422.191406 C 663.890625 418.628906 666.894531 415.4375 669.707031 412.0625 C 673.648438 406.808594 677.402344 401.554688 681.339844 396.300781 C 684.15625 392.734375 686.96875 389.171875 689.785156 385.605469 C 692.785156 381.476562 695.601562 377.351562 698.414062 373.035156 C 701.230469 368.71875 703.855469 364.78125 706.296875 360.464844 C 707.234375 358.777344 707.984375 357.273438 708.734375 355.585938 C 709.296875 354.273438 709.671875 352.960938 710.046875 351.644531 C 710.234375 351.082031 710.421875 350.332031 710.421875 349.769531 C 710.421875 349.207031 710.609375 348.269531 710.609375 347.519531 C 710.609375 347.140625 710.609375 346.765625 710.609375 346.390625 C 710.609375 346.015625 710.421875 345.640625 710.421875 345.265625 L 710.046875 343.953125 C 709.859375 343.578125 709.671875 343.203125 709.484375 342.828125 L 708.734375 342.078125 L 707.421875 340.949219 C 706.484375 340.199219 705.355469 339.636719 704.417969 338.886719 L 704.042969 338.699219 L 704.230469 338.886719 L 703.855469 338.699219 C 702.167969 337.761719 700.292969 336.824219 698.414062 336.074219 C 694.664062 334.570312 690.910156 333.445312 687.34375 331.945312 C 683.78125 330.445312 679.277344 329.128906 675.335938 327.816406 C 671.398438 326.503906 667.644531 325.191406 663.703125 323.875 C 659.578125 322.375 655.449219 321.25 651.132812 320.125 L 644.941406 318.4375 C 641 317.308594 636.875 316.371094 632.746094 315.246094 L 633.308594 315.433594 L 631.996094 315.058594 L 632.558594 315.246094 C 626.367188 313.558594 620.175781 311.679688 613.796875 309.992188 C 610.042969 309.054688 606.476562 308.117188 602.726562 307.179688 C 598.785156 306.238281 594.65625 305.488281 590.53125 304.738281 C 586.402344 303.988281 582.460938 303.050781 578.523438 302.488281 C 574.582031 301.925781 570.453125 301.175781 566.511719 300.609375 C 564.824219 300.421875 563.324219 300.046875 561.636719 299.859375 C 560.695312 299.671875 559.757812 299.296875 559.007812 298.546875 C 558.257812 297.796875 557.882812 296.671875 558.070312 295.546875 C 558.257812 293.292969 560.132812 291.605469 562.199219 291.792969 C 564.261719 291.980469 566.324219 292.542969 568.390625 292.730469 L 574.582031 293.667969 C 578.523438 294.230469 582.460938 294.980469 586.402344 295.734375 C 590.34375 296.484375 594.46875 297.234375 598.597656 297.984375 C 602.726562 298.734375 606.476562 299.859375 610.230469 300.796875 C 618.109375 302.863281 625.992188 305.113281 633.871094 307.367188 L 633.308594 307.179688 L 634.433594 307.554688 L 634.621094 307.554688 L 634.433594 307.554688 C 642.691406 309.617188 650.757812 311.867188 658.824219 314.308594 C 662.953125 315.433594 666.894531 316.933594 671.023438 318.25 C 675.148438 319.5625 678.902344 320.875 682.84375 322.1875 C 686.78125 323.5 690.722656 325.003906 694.664062 326.503906 C 698.976562 327.816406 703.105469 329.691406 707.234375 331.757812 L 706.859375 331.570312 L 707.609375 331.945312 L 707.421875 331.945312 C 709.296875 333.070312 711.171875 334.382812 712.863281 335.699219 C 714.925781 337.386719 716.238281 339.636719 717.175781 342.078125 C 717.929688 344.140625 718.117188 346.203125 718.117188 348.269531 C 718.117188 350.144531 717.742188 352.019531 717.363281 353.710938 C 716.238281 357.648438 714.738281 361.214844 712.675781 364.78125 C 710.796875 368.15625 708.734375 371.535156 706.484375 374.910156 C 704.980469 377.164062 703.480469 379.601562 701.792969 381.851562 C 700.105469 384.105469 698.789062 386.355469 697.101562 388.609375 C 693.722656 393.109375 690.347656 397.425781 686.96875 401.742188 C 686.96875 401.554688 687.15625 401.554688 687.34375 401.367188 L 686.21875 402.867188 C 683.21875 406.808594 680.402344 410.933594 677.402344 415.0625 C 676.648438 416.1875 675.898438 417.316406 674.960938 418.253906 L 672.710938 421.066406 C 671.019531 423.132812 669.332031 425.007812 667.644531 427.070312 L 667.269531 427.632812 L 667.457031 427.445312 L 667.082031 427.820312 C 664.640625 431.011719 662.390625 434.390625 659.953125 437.390625 C 657.511719 440.394531 654.511719 443.394531 652.070312 446.398438 C 649.445312 449.398438 647.003906 452.777344 644.566406 455.964844 C 642.125 459.15625 639.5 462.34375 636.6875 465.535156 C 636.121094 466.285156 635.371094 467.035156 634.808594 467.785156 C 634.246094 468.914062 633.121094 469.664062 631.996094 470.039062 C 631.808594 470.039062 631.433594 470.039062 631.246094 470.039062 C 628.992188 469.851562 627.304688 467.972656 627.304688 465.910156 C 627.492188 464.972656 627.492188 464.410156 627.867188 463.847656 Z M 559.757812 299.484375 C 557.320312 299.109375 556.382812 296.484375 555.445312 294.417969 C 554.503906 292.355469 553.941406 290.480469 553.191406 288.414062 C 551.691406 284.476562 550.191406 280.722656 548.6875 276.78125 C 547.1875 272.84375 546.0625 268.902344 544.75 264.960938 C 543.433594 261.023438 541.933594 257.269531 540.621094 253.328125 C 539.871094 251.265625 539.308594 249.203125 538.746094 247.136719 C 538.183594 245.074219 537.429688 243.386719 536.679688 241.507812 C 535.179688 237.757812 533.679688 234.191406 532.179688 230.4375 C 530.675781 226.6875 528.988281 222.558594 527.488281 218.617188 C 525.984375 214.679688 524.484375 210.925781 522.984375 207.171875 C 520.734375 201.917969 518.855469 196.289062 516.605469 191.039062 C 515.480469 188.410156 514.164062 185.785156 513.039062 182.96875 C 511.914062 180.15625 510.789062 177.339844 509.664062 174.527344 C 509.664062 174.714844 509.664062 174.714844 509.851562 174.902344 C 508.347656 171.335938 506.660156 167.960938 504.972656 164.582031 C 503.285156 161.203125 501.78125 157.265625 500.09375 153.699219 C 498.40625 150.132812 496.714844 146.945312 495.027344 143.566406 C 493.339844 140.191406 492.027344 137 490.335938 133.8125 C 489.585938 132.308594 488.835938 130.808594 487.898438 129.308594 C 487.335938 128.183594 486.585938 127.058594 486.023438 125.929688 C 484.894531 123.679688 483.769531 121.429688 482.457031 119.363281 C 482.082031 118.800781 481.707031 118.238281 481.332031 117.675781 C 480.957031 117.113281 480.207031 116.550781 479.828125 115.988281 L 479.265625 115.421875 C 477.578125 114.109375 477.203125 111.484375 478.515625 109.796875 C 479.828125 108.105469 482.457031 107.730469 484.144531 109.042969 C 484.332031 109.230469 484.332031 109.230469 484.519531 109.417969 C 486.023438 110.921875 487.523438 112.421875 488.648438 114.109375 C 489.773438 115.988281 490.898438 117.863281 491.652344 119.738281 C 494.089844 124.429688 496.902344 129.121094 499.15625 134 C 500.84375 137.375 502.34375 140.753906 504.035156 144.128906 C 505.722656 147.507812 507.597656 151.074219 509.101562 154.636719 C 510.601562 158.203125 512.289062 161.957031 513.976562 165.519531 C 515.667969 169.085938 517.355469 172.835938 518.855469 176.589844 C 519.417969 178.089844 519.980469 179.59375 520.734375 181.09375 C 520.734375 180.90625 520.546875 180.71875 520.546875 180.71875 C 522.234375 184.46875 523.921875 188.410156 525.421875 192.351562 C 526.925781 196.289062 528.238281 200.042969 529.925781 203.796875 C 531.425781 207.546875 532.929688 211.300781 534.429688 215.054688 C 535.929688 218.804688 537.617188 222.933594 539.121094 226.875 C 540.621094 230.8125 542.121094 234.191406 543.625 237.945312 C 544.375 239.820312 545.125 241.695312 545.875 243.574219 C 546.625 245.449219 547.1875 247.511719 547.75 249.578125 C 548.3125 251.640625 549.0625 253.703125 549.816406 255.957031 C 550.566406 258.207031 551.316406 259.707031 551.878906 261.398438 C 553.191406 265.335938 554.503906 269.277344 555.820312 273.40625 C 556.945312 276.78125 558.257812 280.160156 559.570312 283.535156 C 560.886719 286.914062 562.011719 290.105469 563.324219 293.292969 L 563.511719 293.667969 C 564.261719 294.605469 564.449219 295.734375 564.261719 296.859375 C 563.886719 298.734375 562.199219 300.046875 560.320312 300.046875 Z M 358.625 301.363281 C 358.8125 300.796875 359 300.234375 359.375 299.859375 C 359.75 298.921875 360.3125 297.984375 360.6875 297.046875 C 361.625 294.980469 362.5625 293.105469 363.5 291.042969 C 364.253906 289.355469 364.816406 287.664062 365.378906 286.164062 C 366.316406 284.101562 367.253906 281.847656 368.378906 279.785156 C 370.257812 276.21875 371.945312 272.46875 373.820312 268.902344 C 377.574219 261.585938 380.949219 253.890625 384.328125 246.386719 C 386.015625 242.632812 387.519531 238.882812 389.207031 235.316406 C 390.894531 231.753906 392.394531 228.1875 394.085938 224.433594 C 395.773438 220.683594 397.273438 216.929688 398.964844 213.175781 C 400.652344 209.425781 402.527344 205.671875 404.40625 201.917969 C 406.28125 198.167969 407.96875 194.601562 410.03125 191.039062 C 412.097656 187.472656 413.597656 183.90625 415.472656 180.34375 C 417.351562 176.777344 419.039062 173.402344 420.726562 170.023438 C 422.417969 166.644531 424.480469 162.707031 426.355469 158.953125 C 428.234375 155.199219 429.734375 151.449219 431.421875 147.882812 C 432.359375 146.007812 433.109375 144.128906 434.050781 142.253906 C 434.988281 140.378906 435.925781 138.878906 436.863281 137.1875 C 438.925781 133.625 440.804688 130.246094 442.867188 126.867188 C 444.929688 123.492188 447.371094 120.113281 449.621094 116.738281 C 451.3125 113.921875 453.375 111.109375 455.25 108.480469 C 456.5625 106.792969 458.066406 105.292969 459.753906 104.167969 C 460.878906 103.601562 462.003906 103.226562 463.320312 103.039062 C 464.445312 102.664062 465.757812 102.289062 466.882812 102.101562 C 468.574219 101.726562 470.449219 101.914062 472.136719 102.476562 C 472.886719 102.664062 473.636719 102.851562 474.390625 103.226562 C 474.765625 103.414062 475.140625 103.601562 475.515625 103.789062 L 476.640625 104.355469 L 476.828125 104.355469 C 477.765625 104.730469 478.515625 105.292969 479.453125 105.855469 C 479.453125 105.855469 479.453125 105.855469 479.265625 105.855469 L 479.832031 106.230469 L 479.640625 106.042969 C 480.582031 106.605469 481.519531 107.355469 482.457031 108.105469 C 484.144531 109.609375 484.144531 112.046875 482.644531 113.734375 C 481.894531 114.484375 480.957031 115.046875 479.832031 115.046875 C 478.703125 115.046875 477.765625 114.671875 477.015625 113.921875 L 476.078125 113.171875 L 475.515625 112.796875 C 475.140625 112.609375 474.765625 112.234375 474.390625 112.046875 L 474.011719 111.859375 L 473.824219 111.859375 L 473.636719 111.671875 C 473.074219 111.484375 472.511719 111.296875 472.136719 111.109375 C 471.761719 110.921875 471.386719 110.734375 470.824219 110.546875 L 469.324219 110.171875 L 468.386719 110.171875 L 467.820312 110.359375 L 465.757812 110.921875 C 465.007812 111.109375 464.257812 111.296875 463.507812 111.484375 L 463.320312 111.671875 C 462.378906 112.609375 461.441406 113.734375 460.503906 114.859375 C 459.566406 116.175781 458.816406 117.300781 457.878906 118.613281 C 456.753906 120.488281 455.625 122.179688 454.3125 123.867188 C 451.875 127.433594 449.433594 131.183594 446.996094 134.9375 L 447.183594 134.75 L 446.996094 135.125 L 446.996094 135.3125 C 445.121094 138.5 443.242188 141.878906 441.554688 145.070312 C 440.617188 146.945312 439.679688 148.820312 438.925781 150.699219 C 438.175781 152.574219 437.238281 154.261719 436.300781 156.140625 C 435.363281 158.015625 434.613281 159.890625 433.863281 161.578125 C 433.109375 163.269531 431.984375 165.144531 431.046875 167.019531 C 429.171875 170.773438 427.292969 174.527344 425.417969 178.089844 C 423.542969 181.65625 421.855469 185.222656 419.976562 188.597656 C 418.101562 191.976562 416.414062 195.539062 414.535156 199.105469 C 410.785156 206.421875 407.03125 214.117188 403.652344 221.621094 C 402.152344 225.183594 400.652344 228.75 398.964844 232.316406 C 397.273438 235.878906 395.585938 239.820312 393.898438 243.761719 C 390.519531 251.265625 387.332031 258.582031 383.765625 265.898438 C 380.199219 273.21875 376.449219 280.347656 373.070312 287.851562 C 372.320312 289.542969 371.757812 291.230469 371.007812 292.917969 C 370.257812 294.605469 369.503906 296.484375 368.753906 298.171875 C 368.003906 299.859375 367.066406 301.550781 366.316406 303.425781 C 366.128906 303.800781 365.941406 304.363281 365.753906 304.925781 L 365.378906 305.113281 C 363.6875 305.488281 362 305.863281 360.5 306.425781 L 359.1875 306.804688 C 357.683594 305.113281 357.496094 303.050781 358.625 301.363281 Z M 402.339844 388.046875 C 400.464844 387.667969 398.777344 387.105469 397.085938 386.542969 C 395.398438 385.792969 393.523438 385.042969 391.832031 384.105469 C 389.957031 383.167969 388.269531 382.230469 386.765625 381.101562 C 385.078125 379.789062 383.578125 378.101562 382.265625 376.414062 C 381.703125 375.660156 380.949219 374.722656 380.574219 373.785156 C 380.386719 373.222656 380.011719 372.847656 379.636719 372.285156 C 379.449219 372.097656 379.449219 371.910156 379.261719 371.722656 C 378.324219 369.65625 379.261719 367.40625 381.328125 366.46875 C 382.828125 365.71875 384.703125 366.09375 385.828125 367.40625 C 386.765625 368.71875 387.519531 370.03125 388.457031 371.347656 C 389.207031 372.097656 389.769531 373.035156 390.519531 373.785156 L 391.832031 375.097656 L 391.457031 374.722656 C 391.832031 375.097656 392.394531 375.285156 392.769531 375.660156 C 395.023438 376.976562 397.460938 378.101562 399.902344 379.226562 C 400.839844 379.601562 401.777344 379.789062 402.527344 380.164062 C 403.089844 380.351562 403.652344 380.351562 404.402344 380.539062 L 405.90625 380.539062 C 407.21875 380.539062 408.53125 380.351562 409.84375 380.164062 C 411.160156 379.976562 412.472656 379.789062 413.785156 379.414062 C 414.910156 379.039062 416.039062 378.664062 417.164062 378.289062 C 419.226562 377.351562 421.476562 376.414062 423.542969 375.472656 C 424.667969 374.910156 425.605469 374.160156 426.542969 373.410156 C 427.105469 373.035156 427.480469 372.660156 428.046875 372.097656 C 428.609375 371.535156 428.984375 371.160156 429.359375 370.597656 C 430.296875 369.46875 431.234375 368.15625 431.984375 366.84375 C 432.734375 365.53125 433.109375 364.402344 433.675781 363.089844 C 434.425781 361.402344 435.363281 359.527344 436.113281 357.835938 C 437.050781 355.773438 439.492188 355.023438 441.367188 355.960938 C 443.429688 356.898438 444.179688 359.339844 443.242188 361.214844 C 443.242188 361.214844 443.242188 361.214844 443.242188 361.402344 C 442.304688 363.464844 441.367188 365.34375 440.429688 367.21875 C 439.679688 368.90625 438.925781 370.410156 437.988281 371.910156 C 436.863281 373.597656 435.738281 375.097656 434.425781 376.601562 C 433.109375 378.101562 431.609375 379.226562 429.921875 380.351562 C 428.234375 381.476562 426.542969 382.417969 424.855469 383.167969 C 423.167969 383.917969 421.289062 384.667969 419.601562 385.417969 C 415.847656 386.730469 412.097656 387.667969 408.15625 387.859375 C 407.40625 387.859375 406.65625 388.046875 405.90625 388.046875 C 404.78125 388.234375 403.464844 388.046875 402.339844 388.046875 Z M 516.042969 377.539062 C 512.664062 376.226562 509.476562 374.722656 506.472656 373.035156 C 504.972656 372.097656 503.660156 371.160156 502.34375 370.03125 C 501.03125 368.71875 499.71875 367.40625 498.40625 366.09375 C 497.089844 364.96875 495.964844 363.652344 494.839844 362.152344 C 494.277344 361.402344 493.902344 360.652344 493.339844 360.089844 L 493.339844 359.902344 C 492.402344 358.773438 492.214844 357.460938 492.589844 356.148438 C 493.339844 354.085938 495.589844 352.957031 497.65625 353.710938 C 499.53125 354.460938 500.46875 356.335938 501.59375 357.835938 C 501.78125 358.210938 502.15625 358.585938 502.53125 358.964844 C 502.53125 358.964844 502.53125 358.773438 502.34375 358.773438 L 502.53125 358.964844 L 502.71875 359.152344 L 502.53125 358.964844 C 503.847656 360.277344 505.160156 361.589844 506.472656 362.902344 C 507.222656 363.464844 507.785156 364.214844 508.535156 364.78125 C 509.289062 365.34375 510.226562 366.09375 511.164062 366.46875 C 513.039062 367.59375 514.917969 368.53125 516.792969 369.28125 C 517.917969 369.65625 518.855469 370.03125 519.980469 370.40625 C 520.359375 370.40625 520.734375 370.597656 521.109375 370.597656 C 521.671875 370.597656 522.421875 370.785156 523.171875 370.785156 C 524.109375 370.785156 524.859375 370.785156 525.796875 370.597656 C 526.550781 370.40625 527.300781 370.21875 528.050781 370.03125 C 529.925781 369.46875 531.992188 368.90625 533.867188 368.15625 C 534.617188 367.78125 535.554688 367.40625 536.304688 367.03125 C 537.054688 366.65625 537.617188 366.28125 538.183594 365.90625 C 538.746094 365.53125 539.683594 364.78125 540.246094 364.027344 C 541.371094 362.902344 542.496094 361.589844 543.625 360.464844 C 544 359.902344 544.375 359.339844 544.75 358.585938 C 545.6875 356.898438 546.4375 355.210938 547.1875 353.523438 C 547.75 352.207031 548.3125 350.894531 548.875 349.394531 C 549.628906 347.332031 551.878906 346.203125 553.941406 346.953125 C 556.007812 347.707031 557.132812 349.957031 556.382812 352.019531 C 555.066406 356.148438 553.191406 360.089844 550.941406 363.652344 C 549.628906 365.53125 548.3125 367.21875 546.625 368.71875 C 544.9375 370.597656 542.871094 372.097656 540.808594 373.597656 C 538.371094 375.097656 535.742188 376.222656 533.117188 376.976562 C 530.675781 377.726562 528.238281 378.289062 525.609375 378.664062 C 524.859375 378.664062 523.921875 378.851562 522.984375 378.851562 C 520.734375 379.039062 518.292969 378.476562 516.042969 377.539062 Z M 469.699219 395.550781 L 470.261719 395.550781 L 471.199219 395.363281 L 470.636719 395.550781 C 471.761719 395.363281 472.699219 394.988281 473.824219 394.613281 L 474.578125 394.238281 C 474.765625 394.050781 475.140625 393.863281 475.328125 393.675781 L 475.703125 393.296875 L 476.265625 392.734375 C 476.453125 392.359375 476.640625 391.984375 476.828125 391.796875 L 472.886719 392.359375 L 473.261719 392.359375 L 466.320312 393.296875 L 466.882812 393.296875 L 463.882812 393.675781 C 464.445312 394.050781 464.820312 394.613281 465.382812 394.988281 C 465.757812 395.175781 466.320312 395.363281 466.882812 395.363281 C 467.257812 395.550781 467.632812 395.550781 468.007812 395.550781 C 468.761719 395.550781 469.324219 395.550781 469.699219 395.550781 Z M 469.511719 403.429688 C 467.820312 403.429688 466.132812 403.242188 464.445312 402.679688 C 463.695312 402.492188 462.945312 402.304688 462.191406 401.929688 C 461.066406 401.367188 460.128906 400.617188 459.378906 399.867188 C 458.628906 399.300781 457.878906 398.550781 457.316406 397.800781 C 456.941406 397.238281 456.5625 396.488281 456 395.738281 C 455.4375 395.175781 455.0625 394.425781 454.6875 393.675781 C 454.5 393.109375 454.3125 392.359375 454.3125 391.796875 C 453.9375 390.859375 453.75 389.734375 454.125 388.796875 C 454.125 388.609375 454.3125 388.609375 454.3125 388.421875 L 454.3125 388.609375 C 455.0625 387.105469 456.375 386.167969 458.066406 386.167969 L 459.003906 385.980469 L 462.003906 385.605469 L 469.699219 384.480469 L 469.136719 384.480469 L 473.074219 383.917969 C 474.578125 383.730469 476.078125 383.355469 477.578125 383.167969 C 479.078125 382.980469 480.769531 382.980469 482.269531 383.167969 C 483.207031 383.355469 484.144531 383.917969 484.707031 384.480469 C 485.269531 385.230469 485.648438 386.167969 485.835938 387.105469 C 486.023438 388.046875 485.835938 389.171875 485.648438 390.109375 C 485.269531 391.609375 484.707031 393.109375 484.144531 394.613281 C 483.207031 396.675781 481.707031 398.550781 479.832031 400.054688 C 478.515625 400.992188 477.015625 401.742188 475.328125 402.117188 C 474.390625 402.304688 473.449219 402.679688 472.511719 402.867188 C 471.574219 403.054688 470.449219 403.242188 469.511719 403.242188 Z M 461.628906 394.988281 C 461.441406 393.675781 461.816406 392.171875 462.945312 391.234375 C 463.507812 390.859375 464.070312 390.484375 464.820312 390.296875 L 464.445312 390.484375 L 465.007812 390.296875 C 465.570312 390.109375 465.945312 390.109375 466.507812 390.296875 C 468.007812 390.109375 469.699219 389.734375 471.199219 389.546875 C 472.136719 389.359375 473.261719 389.359375 474.203125 389.359375 L 475.328125 389.171875 C 477.390625 388.421875 479.640625 389.359375 480.582031 391.421875 C 481.144531 392.921875 480.769531 394.800781 479.453125 395.925781 C 478.515625 396.675781 477.578125 397.050781 476.453125 397.050781 L 477.015625 397.050781 C 476.078125 397.238281 475.328125 397.425781 474.390625 397.425781 C 473.449219 397.425781 472.886719 397.425781 472.324219 397.613281 L 469.886719 397.988281 C 468.761719 398.175781 467.632812 398.363281 466.320312 398.550781 L 465.945312 398.550781 C 463.695312 398.550781 462.003906 397.050781 461.628906 394.988281 Z M 760.519531 300.796875 C 758.832031 300.421875 757.515625 298.921875 757.328125 297.234375 C 757.140625 295.171875 758.644531 293.292969 760.894531 292.917969 L 761.832031 292.542969 L 766.898438 290.480469 L 766.523438 290.667969 L 767.648438 290.105469 L 767.273438 290.292969 L 770.464844 288.976562 L 770.089844 289.164062 L 771.777344 288.601562 L 772.714844 288.226562 L 772.902344 288.039062 L 780.21875 285.039062 L 779.84375 285.226562 L 780.96875 284.851562 C 785.847656 282.785156 790.539062 280.347656 795.230469 278.097656 C 799.921875 275.84375 804.421875 273.78125 808.738281 271.339844 C 810.804688 270.214844 812.679688 268.902344 814.742188 267.777344 L 814.367188 267.964844 C 816.808594 266.652344 819.246094 265.335938 821.683594 264.023438 C 823.75 263.085938 826 263.835938 826.9375 265.898438 C 827.878906 267.964844 827.125 270.214844 825.0625 271.152344 C 822.8125 272.28125 820.746094 273.40625 818.496094 274.71875 L 818.871094 274.53125 L 818.121094 274.90625 C 815.492188 276.40625 813.054688 278.097656 810.242188 279.410156 C 807.425781 280.722656 804.613281 282.410156 801.609375 283.726562 C 798.605469 285.039062 795.792969 286.351562 792.789062 287.851562 C 789.789062 289.355469 786.410156 290.855469 783.222656 292.355469 L 783.597656 292.167969 L 776.28125 295.171875 L 776.46875 295.171875 L 775.53125 295.546875 L 775.90625 295.359375 L 774.777344 295.734375 L 775.339844 295.546875 L 773.652344 296.109375 L 774.027344 295.921875 L 773.464844 296.109375 L 769.902344 297.609375 L 770.277344 297.421875 L 768.960938 297.984375 L 769.335938 297.796875 L 765.398438 299.484375 C 764.085938 300.234375 762.582031 300.609375 761.082031 300.796875 Z M 845.328125 370.410156 C 838.195312 369.65625 831.066406 369.46875 823.75 369.09375 C 819.996094 368.90625 816.246094 368.53125 812.492188 368.15625 C 810.617188 367.96875 808.738281 367.59375 806.863281 367.40625 C 805.175781 367.21875 803.484375 366.84375 801.796875 366.65625 L 801.046875 366.46875 C 796.917969 366.09375 792.980469 365.90625 788.851562 365.71875 L 787.164062 365.71875 C 784.722656 365.90625 782.472656 365.53125 780.03125 364.96875 C 777.96875 364.402344 776.65625 362.152344 777.21875 360.089844 C 777.78125 358.023438 780.03125 356.710938 782.097656 357.273438 C 782.285156 357.273438 782.472656 357.460938 782.660156 357.460938 L 782.847656 357.460938 L 783.597656 357.648438 C 784.722656 357.835938 786.035156 357.835938 787.164062 357.835938 L 792.039062 358.023438 C 795.417969 358.023438 798.796875 358.210938 802.171875 358.777344 L 801.984375 358.777344 L 802.546875 358.777344 C 805.738281 359.152344 808.925781 359.902344 812.117188 360.277344 C 814.929688 360.652344 817.558594 360.839844 820.371094 361.027344 C 823.1875 361.214844 826 361.402344 828.816406 361.402344 C 834.445312 361.589844 840.074219 361.777344 845.890625 362.527344 C 848.140625 362.527344 849.828125 364.402344 849.828125 366.65625 C 849.828125 368.90625 847.953125 370.597656 845.703125 370.597656 Z M 802.546875 487.113281 C 798.609375 485.046875 794.667969 483.171875 790.726562 481.296875 C 788.851562 480.355469 786.976562 479.417969 784.910156 478.480469 C 782.847656 477.542969 780.96875 476.417969 778.90625 475.105469 L 779.28125 475.292969 L 778.15625 474.730469 C 774.402344 472.664062 770.652344 470.789062 767.085938 468.722656 C 765.023438 467.597656 762.769531 466.285156 760.894531 464.972656 C 759.019531 463.660156 757.328125 462.53125 755.640625 461.40625 C 755.078125 461.21875 754.703125 460.84375 754.140625 460.65625 L 752.828125 460.28125 C 750.761719 459.34375 749.824219 457.089844 750.761719 455.027344 C 751.511719 453.152344 753.578125 452.214844 755.453125 452.777344 C 756.203125 452.964844 757.140625 453.339844 757.890625 453.714844 C 759.207031 454.277344 760.519531 455.027344 761.644531 455.777344 C 763.898438 457.277344 765.960938 458.78125 768.398438 460.28125 C 770.839844 461.78125 773.277344 462.90625 775.71875 464.222656 C 778.15625 465.535156 780.96875 467.035156 783.410156 468.535156 L 783.035156 468.347656 L 784.160156 468.910156 L 784.347656 468.910156 C 787.726562 470.789062 791.289062 472.664062 794.855469 474.351562 C 798.796875 476.230469 802.546875 478.105469 806.488281 479.980469 C 808.363281 480.921875 809.300781 483.359375 808.363281 485.421875 C 807.613281 486.738281 806.300781 487.675781 804.800781 487.675781 C 803.671875 487.488281 803.109375 487.488281 802.546875 487.113281 Z M 118.648438 336.636719 C 116.773438 336.449219 114.898438 336.449219 113.207031 336.261719 C 110.957031 336.074219 108.890625 335.699219 106.640625 335.320312 C 102.324219 334.570312 98.199219 333.820312 93.882812 333.070312 C 89.566406 332.320312 85.816406 331.195312 81.875 330.257812 C 77.933594 329.316406 73.804688 328.566406 69.867188 327.816406 C 67.238281 327.441406 64.613281 327.066406 61.984375 326.691406 L 62.550781 326.691406 L 61.046875 326.691406 C 58.796875 326.503906 56.542969 326.128906 54.105469 325.941406 C 51.855469 325.753906 50.164062 323.875 50.351562 321.8125 C 50.539062 319.5625 52.417969 317.871094 54.480469 318.058594 C 57.109375 318.25 59.546875 318.4375 62.171875 318.8125 L 61.609375 318.8125 C 65.738281 319.375 70.054688 319.9375 74.183594 320.5 C 78.308594 321.0625 82.625 322.1875 86.753906 323.125 C 94.820312 325.003906 102.886719 326.691406 111.144531 327.816406 L 112.457031 328.003906 C 113.957031 328.191406 115.460938 328.378906 116.773438 328.378906 C 118.085938 328.378906 119.585938 328.566406 120.902344 328.753906 C 122.964844 329.503906 124.089844 331.757812 123.339844 333.820312 C 122.777344 335.507812 121.277344 336.449219 119.585938 336.449219 C 119.398438 336.824219 119.023438 336.636719 118.648438 336.636719 Z M 60.671875 427.445312 C 58.609375 426.507812 57.671875 424.257812 58.609375 422.191406 C 59.171875 420.691406 60.671875 419.753906 62.359375 419.753906 C 63.300781 419.566406 64.050781 419.378906 64.988281 419.191406 L 64.425781 419.378906 L 65.550781 419.191406 L 65.175781 419.191406 C 70.992188 417.503906 76.808594 415.8125 82.8125 414.3125 C 88.816406 412.8125 94.445312 412.4375 100.449219 411.6875 L 99.886719 411.6875 C 104.578125 410.9375 109.082031 409.996094 113.582031 408.683594 L 113.394531 408.683594 L 114.144531 408.496094 L 113.582031 408.683594 L 114.519531 408.496094 L 113.957031 408.683594 L 115.460938 408.308594 L 114.898438 408.496094 C 117.335938 407.746094 119.960938 406.996094 122.402344 406.246094 C 124.464844 405.496094 126.71875 406.621094 127.46875 408.683594 C 128.21875 410.746094 127.09375 413 125.027344 413.75 C 122.214844 414.875 119.398438 415.625 116.398438 416.375 L 115.273438 416.5625 L 115.835938 416.375 C 111.707031 417.503906 107.390625 418.628906 103.078125 419.378906 C 98.949219 420.128906 94.632812 420.503906 90.316406 421.066406 C 86.191406 421.816406 82.0625 422.757812 77.933594 423.882812 C 74.371094 424.820312 70.804688 425.945312 67.050781 426.882812 C 66.113281 427.070312 65.175781 427.445312 64.050781 427.632812 C 63.300781 427.820312 62.738281 427.820312 61.984375 427.820312 C 61.609375 427.632812 61.046875 427.632812 60.671875 427.445312 Z M 103.453125 518.632812 C 101.386719 517.882812 100.261719 515.632812 101.011719 513.566406 C 101.574219 512.441406 102.324219 511.316406 103.453125 510.566406 C 104.390625 509.628906 105.515625 508.875 106.640625 508.125 C 108.703125 506.625 110.769531 505.125 113.019531 503.621094 C 115.273438 502.121094 116.960938 500.621094 119.023438 499.121094 C 121.089844 497.617188 122.964844 496.304688 124.839844 494.992188 C 127.65625 492.929688 130.28125 490.863281 132.910156 488.613281 C 135.535156 486.363281 138.351562 484.484375 141.351562 482.796875 C 144.355469 481.109375 146.792969 479.417969 149.417969 477.917969 C 152.046875 476.417969 154.859375 474.730469 157.488281 473.226562 L 158.613281 472.289062 C 160.488281 471.351562 162.929688 472.101562 164.054688 473.976562 C 164.617188 474.917969 164.617188 476.042969 164.242188 477.167969 C 163.867188 478.105469 163.117188 479.042969 162.179688 479.417969 L 161.429688 479.792969 L 160.863281 480.167969 L 161.242188 479.980469 C 157.488281 482.046875 153.921875 484.296875 150.171875 486.550781 C 146.230469 488.800781 142.476562 491.238281 138.914062 493.867188 C 136.660156 495.554688 134.410156 497.429688 132.160156 499.308594 C 129.53125 501.371094 126.90625 503.246094 124.277344 505.125 C 121.652344 507 119.398438 508.6875 116.960938 510.566406 C 114.519531 512.441406 111.894531 514.128906 109.457031 515.820312 C 108.890625 516.195312 108.328125 516.757812 107.765625 517.132812 C 107.015625 518.257812 105.703125 519.007812 104.390625 519.007812 C 104.203125 518.820312 103.828125 518.820312 103.453125 518.632812 Z M 414.722656 67.953125 C 412.847656 61.761719 411.347656 55.570312 409.84375 49.378906 C 408.34375 43.1875 407.59375 36.246094 406.46875 29.867188 C 405.34375 23.488281 404.027344 16.921875 402.714844 10.539062 C 401.402344 4.160156 400.464844 -2.78125 399.527344 -9.535156 L 399.714844 -8.410156 C 399.339844 -10.660156 399.152344 -12.726562 398.777344 -14.976562 C 398.210938 -17.226562 398.210938 -19.667969 398.777344 -21.917969 C 400.464844 -26.609375 405.53125 -29.234375 410.222656 -27.546875 C 413.597656 -26.421875 416.039062 -23.230469 416.226562 -19.667969 C 416.789062 -16.289062 417.351562 -12.914062 417.726562 -9.347656 C 419.414062 2.285156 421.855469 13.917969 423.917969 25.363281 C 425.042969 31.367188 425.792969 37.558594 426.917969 43.5625 C 427.859375 48.628906 429.359375 53.695312 430.671875 58.761719 C 431.046875 59.886719 431.234375 61.011719 431.609375 61.949219 C 432.359375 64.203125 432.171875 66.828125 431.234375 68.890625 C 430.109375 70.957031 428.234375 72.644531 425.980469 73.394531 C 425.042969 73.769531 424.105469 73.957031 423.167969 73.769531 C 419.601562 74.144531 416.035156 71.707031 414.722656 67.953125 Z M 418.289062 49.941406 C 413.785156 47.691406 412.097656 42.25 414.347656 37.746094 C 415.472656 35.683594 417.351562 33.992188 419.601562 33.242188 C 422.417969 32.492188 425.230469 31.554688 427.859375 30.429688 C 429.921875 29.492188 431.796875 28.554688 433.863281 27.425781 C 434.800781 26.863281 435.738281 26.300781 436.675781 25.550781 L 437.800781 24.613281 L 438.738281 23.675781 C 439.113281 23.300781 439.304688 22.738281 439.679688 22.359375 C 440.054688 21.609375 440.429688 20.859375 440.804688 20.109375 C 441.554688 18.046875 442.117188 16.167969 442.679688 14.105469 C 443.054688 12.417969 443.429688 10.726562 443.804688 8.851562 C 443.992188 7.914062 443.992188 6.789062 443.992188 5.851562 C 443.992188 5.097656 443.992188 4.347656 443.804688 3.785156 C 443.617188 2.847656 443.429688 1.722656 443.242188 0.785156 C 443.054688 -0.152344 442.679688 -0.90625 442.492188 -1.65625 C 442.304688 -2.40625 441.742188 -2.96875 441.554688 -3.71875 C 440.617188 -5.21875 439.679688 -6.722656 438.550781 -8.035156 C 437.800781 -8.785156 437.238281 -9.722656 436.488281 -10.472656 L 435.550781 -11.410156 C 435.175781 -11.597656 434.800781 -11.972656 434.425781 -12.164062 L 433.488281 -12.726562 C 431.421875 -13.476562 429.546875 -14.039062 427.480469 -14.601562 C 425.980469 -14.976562 424.292969 -15.351562 422.792969 -15.539062 L 421.101562 -15.726562 C 420.351562 -15.726562 419.601562 -15.539062 418.851562 -15.539062 C 416.601562 -15.164062 414.535156 -14.789062 412.285156 -14.226562 C 411.535156 -14.039062 410.785156 -13.851562 410.21875 -13.476562 C 405.34375 -12.351562 400.464844 -15.539062 399.527344 -20.417969 C 398.964844 -22.855469 399.527344 -25.296875 400.839844 -27.359375 C 402.152344 -29.234375 404.027344 -30.363281 406.09375 -31.113281 L 405.34375 -30.925781 C 408.15625 -31.863281 410.972656 -32.425781 413.972656 -32.988281 C 415.847656 -33.363281 417.726562 -33.550781 419.601562 -33.738281 C 422.042969 -33.738281 424.667969 -33.550781 427.105469 -33.175781 C 430.484375 -32.613281 433.863281 -31.675781 437.050781 -30.550781 C 442.117188 -29.046875 446.621094 -26.234375 450.183594 -22.480469 C 455.8125 -16.664062 459.566406 -9.535156 461.628906 -1.84375 C 462.382812 1.910156 462.570312 5.664062 462.382812 9.414062 C 462.003906 13.355469 461.253906 17.109375 460.128906 20.859375 C 459.191406 24.613281 457.691406 28.175781 455.8125 31.367188 C 453.5625 35.308594 450.371094 38.683594 446.621094 41.3125 C 444.929688 42.4375 443.429688 43.375 441.554688 44.3125 C 440.054688 45.0625 438.550781 46.003906 436.863281 46.566406 C 433.109375 48.066406 429.359375 49.566406 425.605469 50.503906 C 424.667969 50.878906 423.542969 50.878906 422.605469 50.878906 C 420.914062 50.878906 419.414062 50.503906 418.289062 49.941406 Z M 574.582031 33.242188 L 576.082031 33.242188 L 576.644531 33.054688 L 577.769531 32.492188 L 579.648438 31.367188 L 580.773438 30.429688 L 581.335938 29.679688 L 581.523438 29.304688 C 581.523438 29.117188 581.710938 29.117188 581.710938 28.929688 L 581.710938 28.742188 C 581.710938 28.554688 581.710938 28.554688 581.710938 28.363281 C 581.710938 28.175781 581.710938 27.988281 581.710938 27.800781 L 581.710938 26.863281 C 581.710938 26.488281 581.523438 26.300781 581.523438 25.925781 L 581.335938 25.550781 L 581.148438 25.363281 C 581.148438 25.175781 580.960938 25.175781 580.960938 24.988281 C 580.773438 24.613281 580.398438 24.425781 580.023438 24.050781 L 578.898438 23.113281 L 578.332031 22.738281 L 576.644531 22.738281 C 575.894531 22.925781 575.332031 22.925781 574.769531 23.113281 L 572.894531 23.863281 C 572.328125 24.050781 571.765625 24.425781 571.203125 24.800781 C 570.640625 25.175781 570.453125 25.175781 570.265625 25.550781 C 570.078125 25.925781 569.328125 26.300781 568.765625 26.675781 C 567.453125 27.988281 566.136719 29.492188 565.011719 30.992188 C 566.699219 31.554688 568.390625 32.304688 570.265625 32.867188 C 571.203125 33.054688 572.140625 33.242188 573.269531 33.429688 Z M 580.398438 85.589844 L 579.273438 85.027344 L 580.023438 85.402344 C 575.332031 82.589844 570.640625 79.960938 566.136719 77.148438 C 561.074219 74.332031 556.382812 70.769531 552.253906 66.828125 C 547.75 62.136719 544.5625 56.320312 542.871094 50.128906 C 541.371094 43.375 541.933594 36.246094 544.5625 29.867188 C 546.25 26.113281 548.3125 22.546875 550.941406 19.359375 C 553.753906 15.605469 557.132812 12.230469 561.074219 9.601562 C 564.824219 7.351562 568.765625 5.664062 573.082031 4.910156 C 576.644531 4.160156 580.398438 4.347656 583.773438 5.476562 C 586.964844 6.601562 589.777344 8.476562 592.21875 10.726562 C 594.28125 12.605469 596.160156 15.042969 597.660156 17.484375 C 600.472656 23.300781 600.660156 29.867188 598.410156 35.871094 C 597.472656 38.121094 596.160156 40.1875 594.65625 41.875 C 593.15625 43.5625 591.28125 45.25 589.402344 46.566406 C 587.152344 48.253906 584.714844 49.566406 581.898438 50.503906 C 578.710938 51.628906 575.332031 51.820312 571.953125 51.628906 C 568.390625 51.253906 565.011719 50.503906 561.636719 49.378906 C 562.011719 49.941406 562.199219 50.691406 562.574219 51.253906 L 563.886719 53.320312 L 565.386719 55.007812 C 566.136719 55.757812 566.890625 56.320312 567.640625 57.070312 C 572.519531 60.636719 577.394531 63.828125 582.648438 66.640625 L 581.710938 66.078125 L 587.339844 69.269531 C 589.027344 70.207031 590.53125 71.144531 592.03125 72.269531 C 595.785156 75.648438 595.972656 81.277344 592.59375 85.027344 C 590.90625 86.90625 588.464844 88.03125 585.839844 88.03125 C 583.960938 87.65625 581.898438 86.90625 580.398438 85.589844 Z M 653.761719 139.253906 C 649.445312 136.8125 647.753906 131.371094 650.007812 127.058594 C 651.695312 123.867188 653.382812 120.863281 655.261719 117.863281 C 658.824219 111.859375 662.765625 106.230469 666.519531 100.414062 L 666.332031 100.601562 C 671.210938 92.722656 676.460938 85.214844 681.714844 77.710938 C 684.53125 73.769531 687.15625 69.644531 689.972656 65.515625 C 690.910156 64.203125 691.660156 63.074219 692.597656 61.761719 C 695.039062 58.386719 699.351562 57.070312 703.292969 58.386719 C 707.984375 60.074219 710.421875 65.328125 708.734375 70.019531 C 708.359375 71.144531 707.609375 72.082031 706.859375 73.019531 C 705.167969 75.085938 703.855469 77.523438 702.355469 79.585938 C 699.914062 83.152344 697.476562 86.71875 695.039062 90.28125 C 690.535156 96.847656 686.03125 103.226562 681.902344 109.984375 C 680.027344 112.984375 678.339844 115.800781 676.460938 118.613281 C 674.960938 120.863281 673.460938 123.117188 671.960938 125.554688 C 669.894531 128.933594 668.019531 132.308594 666.144531 135.6875 C 664.453125 138.691406 661.265625 140.566406 657.886719 140.378906 C 656.386719 140.191406 654.886719 139.816406 653.761719 139.253906 Z M 697.851562 121.050781 C 695.226562 120.863281 692.785156 120.113281 690.347656 119.175781 C 686.03125 117.488281 681.902344 115.613281 677.777344 113.171875 C 673.648438 110.359375 672.710938 104.730469 675.710938 100.601562 C 677.027344 98.539062 679.277344 97.222656 681.527344 96.847656 C 683.78125 96.472656 686.03125 97.035156 688.09375 98.164062 C 689.597656 99.101562 691.097656 99.851562 692.597656 100.601562 L 691.472656 100.039062 C 693.722656 100.976562 695.976562 101.914062 698.226562 102.664062 L 698.976562 102.851562 L 700.855469 102.851562 C 701.417969 102.851562 701.980469 102.664062 702.355469 102.664062 L 702.917969 102.476562 L 703.292969 102.289062 C 703.480469 102.101562 703.855469 101.914062 704.042969 101.914062 L 705.355469 100.976562 L 706.109375 100.039062 L 706.484375 99.476562 L 707.046875 98.351562 C 707.421875 97.597656 707.609375 96.660156 707.984375 95.910156 C 708.359375 95.160156 708.359375 94.597656 708.359375 94.035156 C 708.359375 93.472656 708.359375 92.722656 708.546875 92.15625 C 708.734375 91.59375 708.546875 90.84375 708.546875 90.09375 C 708.546875 89.71875 708.359375 89.34375 708.359375 89.15625 C 707.984375 87.46875 707.234375 85.777344 706.671875 84.089844 C 706.484375 83.527344 706.296875 83.152344 705.921875 82.589844 C 704.605469 80.148438 702.917969 77.898438 701.417969 75.648438 C 701.042969 75.085938 700.667969 74.707031 700.292969 74.144531 L 699.726562 73.582031 L 699.539062 73.394531 L 698.601562 72.832031 C 694.097656 70.769531 692.222656 65.328125 694.289062 60.824219 C 696.351562 56.320312 701.792969 54.445312 706.296875 56.507812 C 706.484375 56.695312 706.671875 56.695312 706.859375 56.882812 C 708.734375 57.824219 710.421875 58.949219 711.925781 60.261719 C 713.988281 62.324219 715.863281 64.578125 717.554688 67.015625 C 718.867188 68.890625 720.179688 70.769531 721.304688 72.832031 C 722.804688 75.648438 724.121094 78.460938 725.058594 81.464844 C 727.308594 87.46875 727.496094 94.222656 725.808594 100.414062 C 724.871094 103.980469 723.179688 107.355469 720.929688 110.546875 C 718.867188 113.359375 716.050781 115.988281 713.050781 117.863281 C 709.109375 120.300781 704.417969 121.429688 699.914062 121.429688 C 699.351562 121.050781 698.601562 121.050781 697.851562 121.050781 Z M 689.597656 158.953125 C 687.53125 155.761719 686.03125 152.199219 684.71875 148.632812 C 683.78125 146.195312 683.21875 143.566406 682.464844 141.128906 C 681.714844 138.691406 680.777344 136.4375 680.027344 134.1875 C 679.089844 130.996094 678.152344 127.808594 677.214844 124.617188 C 675.898438 120.300781 674.773438 115.800781 673.648438 111.296875 C 672.710938 107.355469 671.210938 102.664062 673.273438 98.726562 C 675.710938 94.222656 681.152344 92.535156 685.46875 94.972656 C 688.660156 96.660156 690.535156 100.039062 690.347656 103.414062 C 690.722656 105.667969 691.472656 107.917969 692.035156 110.171875 L 692.222656 111.109375 C 693.347656 115.613281 694.664062 119.925781 695.976562 124.242188 C 696.914062 127.246094 697.664062 130.246094 698.789062 133.25 C 699.726562 135.5 700.292969 137.5625 701.042969 139.816406 C 701.417969 141.128906 701.980469 142.628906 702.355469 143.941406 C 702.730469 145.070312 703.292969 146.007812 703.855469 147.132812 L 705.167969 149.382812 C 707.796875 153.511719 706.671875 159.140625 702.355469 161.769531 C 700.855469 162.707031 699.164062 163.269531 697.476562 163.269531 C 694.097656 163.269531 691.285156 161.578125 689.597656 158.953125 Z M 330.667969 97.597656 C 330.105469 95.160156 329.355469 92.722656 328.789062 90.46875 C 323.914062 96.847656 316.21875 100.414062 308.339844 99.664062 C 306.277344 99.476562 304.398438 99.289062 302.523438 98.914062 C 300.648438 98.539062 298.769531 97.972656 296.707031 97.410156 C 293.890625 96.472656 291.453125 95.160156 289.015625 93.472656 C 282.824219 89.34375 278.507812 83.152344 275.128906 76.585938 C 273.816406 73.957031 272.503906 71.144531 271.191406 68.515625 C 270.625 67.578125 270.25 66.453125 269.875 65.140625 C 269.5 63.074219 269.875 61.011719 270.8125 59.136719 L 270.8125 59.324219 L 271 59.136719 L 271.378906 58.574219 L 271.191406 58.949219 C 273.816406 54.632812 279.257812 53.320312 283.574219 55.945312 C 285.261719 56.882812 286.574219 58.574219 287.324219 60.261719 C 288.828125 62.886719 289.953125 65.703125 291.265625 68.515625 C 292.203125 70.207031 293.140625 71.707031 294.265625 73.207031 C 295.019531 74.144531 295.582031 74.898438 296.332031 75.648438 C 297.082031 76.398438 297.832031 76.960938 298.582031 77.710938 C 299.332031 78.460938 299.707031 78.460938 300.273438 78.835938 L 301.398438 79.398438 C 302.148438 79.773438 302.898438 79.960938 303.648438 80.148438 C 304.773438 80.523438 306.089844 80.714844 307.214844 80.902344 C 307.964844 80.902344 308.902344 81.089844 309.652344 81.089844 L 311.527344 81.089844 L 311.90625 80.902344 L 312.28125 80.714844 L 312.84375 80.335938 L 313.59375 79.773438 C 313.96875 79.398438 314.34375 78.835938 314.90625 78.460938 C 315.46875 78.085938 315.65625 77.523438 316.03125 76.960938 C 316.40625 76.398438 316.40625 76.398438 316.40625 76.023438 C 316.40625 75.648438 316.59375 75.460938 316.78125 75.273438 L 316.96875 74.144531 C 316.96875 73.582031 317.15625 73.207031 317.15625 72.644531 C 317.15625 70.769531 316.96875 69.082031 316.78125 67.203125 C 316.59375 65.328125 316.40625 63.640625 315.84375 61.949219 C 315.28125 59.886719 314.71875 57.636719 314.15625 55.570312 C 313.59375 52.945312 313.21875 50.316406 312.84375 47.691406 C 312.65625 46.003906 312.46875 44.3125 312.46875 42.625 C 312.28125 40.9375 312.28125 39.246094 312.65625 37.558594 C 313.40625 33.992188 316.40625 31.179688 319.972656 30.617188 C 323.160156 30.054688 326.539062 31.179688 328.601562 33.804688 C 330.292969 36.433594 331.605469 39.246094 332.167969 42.25 C 332.917969 44.875 333.667969 47.503906 334.417969 50.316406 C 335.921875 55.195312 337.796875 59.886719 339.484375 64.765625 C 341.175781 69.644531 343.050781 74.332031 344.550781 79.210938 C 345.863281 83.339844 346.992188 87.65625 348.117188 91.96875 C 348.867188 94.222656 348.492188 96.660156 347.554688 98.914062 C 346.425781 100.976562 344.550781 102.664062 342.300781 103.414062 C 341.363281 103.601562 340.609375 103.789062 339.671875 103.789062 C 335.359375 103.980469 331.792969 101.351562 330.667969 97.597656 Z M 210.773438 184.65625 C 209.835938 182.40625 209.648438 179.96875 210.398438 177.714844 C 211.335938 175.464844 213.023438 173.589844 215.089844 172.460938 L 216.589844 171.710938 C 217.902344 170.960938 219.03125 170.398438 220.15625 169.648438 L 221.65625 168.523438 C 222.03125 168.148438 222.59375 167.585938 222.96875 167.207031 C 223.34375 166.832031 223.71875 165.894531 224.28125 165.332031 C 224.847656 164.769531 225.035156 164.019531 225.222656 163.269531 C 225.410156 162.519531 225.972656 161.390625 226.160156 160.453125 C 226.347656 159.890625 226.347656 159.328125 226.535156 158.765625 C 226.722656 158.203125 226.535156 157.828125 226.722656 157.453125 C 226.910156 157.078125 226.722656 157.078125 226.722656 156.890625 L 226.535156 156.328125 C 226.347656 155.953125 226.347656 155.574219 226.160156 155.199219 C 226.160156 155.011719 225.972656 154.824219 225.972656 154.824219 L 225.035156 153.886719 C 224.65625 153.511719 224.28125 153.324219 223.90625 153.136719 L 222.78125 152.574219 L 221.28125 151.449219 C 218.839844 150.886719 216.214844 150.511719 213.589844 150.132812 C 210.398438 149.757812 207.394531 149.382812 204.207031 149.382812 C 200.453125 149.195312 196.703125 148.820312 193.136719 147.695312 C 189.195312 146.757812 185.445312 145.445312 181.691406 143.566406 C 177.5625 141.316406 173.8125 138.3125 170.808594 134.75 C 167.996094 130.808594 165.929688 126.304688 165.179688 121.429688 C 164.429688 116.925781 164.804688 112.234375 166.117188 107.917969 C 168.558594 100.226562 172.6875 93.285156 178.125 87.28125 C 179.441406 85.777344 180.753906 84.464844 182.066406 82.964844 C 184.507812 78.648438 190.136719 76.960938 194.449219 79.398438 C 198.765625 81.839844 200.453125 87.46875 198.015625 91.78125 C 197.078125 93.472656 195.761719 94.972656 194.449219 96.285156 C 192.949219 97.785156 191.636719 99.289062 190.324219 100.789062 C 189.007812 102.289062 187.882812 104.167969 186.757812 105.855469 C 186.007812 107.167969 185.257812 108.480469 184.695312 109.796875 C 184.128906 111.109375 183.941406 112.046875 183.566406 113.171875 C 183.378906 113.734375 183.191406 114.484375 183.191406 115.046875 C 183.191406 115.613281 183.191406 115.800781 183.191406 116.363281 C 183.191406 116.925781 183.191406 117.113281 183.191406 117.300781 C 183.191406 117.488281 183.378906 118.425781 183.566406 118.988281 C 183.753906 119.550781 183.941406 120.113281 184.128906 120.675781 L 184.695312 121.992188 C 184.882812 122.367188 185.070312 122.742188 185.257812 123.117188 C 185.445312 123.492188 185.820312 123.867188 186.195312 124.242188 C 186.570312 124.617188 187.320312 125.367188 187.882812 125.929688 C 188.445312 126.492188 189.007812 126.679688 189.757812 127.246094 C 190.511719 127.808594 191.074219 127.996094 191.824219 128.371094 C 193.511719 128.933594 195.199219 129.683594 197.078125 130.246094 C 198.953125 130.808594 200.265625 130.996094 201.957031 131.371094 C 205.144531 131.746094 208.335938 131.558594 211.710938 131.933594 C 215.089844 132.308594 218.277344 132.683594 221.46875 133.25 C 224.847656 133.8125 228.222656 134.75 231.414062 136.25 C 234.789062 137.9375 237.980469 140.191406 240.417969 143.191406 C 244.921875 149.195312 246.421875 156.703125 244.546875 164.019531 C 243.609375 168.148438 242.105469 172.085938 239.855469 175.652344 C 237.792969 178.839844 235.351562 181.65625 232.539062 183.90625 C 230.097656 185.785156 227.285156 187.472656 224.46875 188.785156 L 223.34375 189.347656 C 222.21875 189.910156 220.90625 190.285156 219.78125 190.285156 C 215.652344 190.097656 212.273438 187.847656 210.773438 184.65625 Z M 171.183594 900.453125 C 166.304688 899.703125 162.742188 895.199219 163.492188 890.132812 C 164.242188 885.253906 168.746094 881.691406 173.8125 882.441406 C 174.5625 882.628906 175.3125 882.628906 176.0625 882.816406 L 177.1875 882.816406 C 179.441406 882.628906 181.503906 882.441406 183.753906 882.066406 C 184.882812 881.878906 186.007812 881.503906 187.132812 881.128906 C 187.882812 880.941406 188.445312 880.566406 189.195312 880.378906 L 190.699219 879.4375 L 192.011719 878.5 L 192.761719 877.75 L 193.136719 877.1875 C 193.511719 876.8125 193.699219 876.25 193.886719 875.875 L 194.261719 874.9375 C 194.449219 874.371094 194.636719 873.808594 194.824219 873.058594 C 195.011719 871.746094 195.199219 870.621094 195.386719 869.308594 C 195.574219 867.242188 195.574219 865.179688 195.386719 863.117188 C 195.199219 861.613281 195.011719 860.113281 194.824219 858.425781 C 194.636719 856.734375 194.074219 855.234375 193.699219 853.734375 C 192.761719 850.917969 191.636719 848.105469 190.324219 845.480469 C 188.820312 842.289062 187.695312 839.097656 186.570312 835.722656 C 184.695312 829.71875 184.695312 823.339844 186.570312 817.523438 C 188.070312 812.832031 190.511719 808.328125 193.699219 804.574219 C 196.328125 801.574219 199.515625 799.136719 203.082031 797.445312 C 205.332031 796.507812 207.585938 795.757812 210.023438 795.195312 C 213.589844 794.257812 217.339844 793.695312 220.90625 793.695312 C 224.46875 793.507812 228.222656 793.882812 231.789062 794.445312 C 233.664062 794.820312 235.539062 795.195312 237.417969 795.757812 C 238.167969 795.945312 239.105469 796.320312 239.855469 796.507812 L 240.230469 796.507812 C 245.296875 797.070312 248.863281 801.574219 248.300781 806.453125 C 247.734375 811.519531 243.234375 815.082031 238.355469 814.519531 C 238.167969 814.519531 237.792969 814.519531 237.605469 814.332031 C 235.164062 813.957031 232.726562 813.207031 230.472656 812.457031 C 228.785156 812.082031 226.910156 811.894531 225.222656 811.707031 C 223.90625 811.707031 222.59375 811.707031 221.28125 811.707031 C 219.96875 811.707031 218.464844 812.082031 216.964844 812.269531 C 215.277344 812.644531 213.589844 813.019531 211.898438 813.582031 L 210.210938 814.332031 L 208.523438 815.457031 C 208.148438 815.644531 207.960938 816.019531 207.585938 816.394531 C 207.207031 816.773438 207.019531 817.148438 206.644531 817.523438 C 206.082031 818.460938 205.519531 819.210938 205.144531 820.148438 C 204.769531 821.085938 204.394531 822.023438 204.019531 822.777344 C 203.644531 823.527344 203.644531 824.089844 203.457031 824.652344 C 203.269531 825.214844 203.269531 825.589844 203.269531 825.964844 L 203.269531 827.089844 C 203.269531 827.839844 203.457031 828.59375 203.457031 829.34375 C 203.832031 830.65625 204.019531 831.78125 204.394531 833.09375 C 206.644531 839.097656 209.648438 844.914062 211.335938 851.296875 C 213.210938 858.425781 213.777344 865.742188 213.023438 873.058594 C 212.648438 876.625 211.898438 880 210.585938 883.191406 C 208.148438 888.632812 204.207031 893.136719 198.953125 895.949219 C 194.824219 898.203125 190.511719 899.703125 185.820312 900.453125 C 183.941406 900.828125 182.066406 901.015625 180.378906 901.203125 C 179.253906 901.390625 178.125 901.390625 177 901.390625 C 175.125 901.015625 173.0625 900.828125 171.183594 900.453125 Z M 356.183594 890.507812 C 351.117188 890.320312 347.179688 886.382812 347.179688 881.316406 C 347.179688 871.183594 346.992188 860.863281 346.992188 850.730469 C 346.992188 845.289062 347.179688 839.851562 347.179688 834.410156 L 347.367188 825.964844 C 347.367188 823.902344 347.367188 821.648438 347.742188 819.585938 C 348.304688 814.519531 352.808594 810.957031 357.683594 811.519531 C 362.75 812.082031 366.316406 816.585938 365.753906 821.460938 C 365.753906 821.648438 365.753906 822.023438 365.566406 822.210938 C 365.566406 822.402344 365.566406 822.402344 365.566406 822.589844 C 365.378906 827.089844 365.378906 831.59375 365.378906 836.285156 C 365.378906 841.539062 365.191406 846.605469 365.191406 851.859375 C 365.191406 861.800781 365.378906 871.746094 365.378906 881.503906 C 365.191406 886.570312 361.25 890.507812 356.183594 890.507812 Z M 356.371094 826.714844 C 353.371094 826.527344 350.554688 826.527344 347.554688 826.527344 L 344.925781 826.527344 C 341.550781 826.527344 338.359375 826.152344 334.984375 825.777344 C 334.605469 825.777344 334.230469 825.777344 334.042969 825.777344 C 333.667969 825.777344 333.292969 825.589844 332.917969 825.589844 C 328.039062 824.277344 325.414062 819.210938 326.726562 814.332031 C 327.851562 810.390625 331.417969 807.765625 335.546875 807.765625 L 336.859375 807.953125 C 338.546875 808.140625 340.046875 808.328125 341.738281 808.515625 C 344.738281 808.703125 347.554688 808.515625 350.554688 808.515625 C 353.933594 808.515625 357.121094 808.703125 360.3125 809.078125 L 359 809.078125 C 362.75 809.265625 366.503906 809.265625 370.257812 808.890625 C 375.320312 808.703125 379.449219 812.644531 379.636719 817.710938 C 379.824219 822.777344 375.886719 826.902344 370.820312 827.089844 C 370.632812 827.089844 370.257812 827.089844 370.070312 827.089844 L 363.6875 827.277344 L 362.5625 827.277344 C 360.5 826.902344 358.4375 826.714844 356.371094 826.714844 Z M 526.738281 896.699219 C 526.550781 896.324219 526.550781 895.949219 526.550781 895.574219 C 526.171875 893.511719 525.609375 891.257812 525.046875 889.195312 C 524.109375 885.441406 523.546875 881.691406 522.796875 877.9375 C 521.484375 871.183594 519.980469 864.242188 518.105469 857.488281 C 516.042969 849.792969 514.164062 842.101562 511.726562 834.597656 C 510.039062 829.15625 507.785156 823.902344 505.535156 818.835938 C 503.847656 815.457031 501.96875 812.269531 500.09375 809.078125 C 498.96875 811.332031 498.03125 813.769531 496.902344 816.019531 C 495.214844 819.773438 493.527344 823.527344 492.027344 827.277344 C 489.960938 833.09375 488.085938 839.097656 486.398438 844.914062 C 484.332031 851.484375 482.644531 857.863281 481.144531 864.617188 C 480.769531 866.867188 480.207031 869.121094 479.832031 871.371094 C 479.453125 872.871094 479.265625 874.371094 478.890625 875.875 C 478.515625 877.5625 478.140625 879.4375 477.578125 881.128906 C 476.078125 884.316406 472.699219 886.570312 469.136719 886.570312 C 464.632812 886.570312 460.878906 883.191406 460.316406 878.6875 C 460.128906 877.75 460.128906 876.8125 460.316406 875.875 C 460.503906 875.125 460.691406 874.371094 461.066406 873.621094 L 461.066406 873.246094 C 462.570312 866.117188 463.882812 858.988281 465.757812 851.859375 C 467.445312 845.101562 469.699219 838.535156 471.761719 831.78125 C 474.011719 824.652344 476.453125 817.710938 479.453125 810.953125 C 481.519531 805.890625 483.957031 801.011719 486.585938 796.320312 C 489.210938 792.003906 493.152344 787.6875 498.59375 787.125 C 500.84375 786.9375 503.097656 787.125 505.160156 788.066406 C 507.785156 789.378906 510.039062 791.253906 511.726562 793.695312 C 512.664062 795.007812 513.601562 796.320312 514.351562 797.632812 C 515.480469 799.511719 516.792969 801.199219 517.917969 803.074219 C 525.796875 816.207031 530.300781 831.03125 534.242188 845.667969 C 535.554688 850.730469 537.054688 855.796875 538.183594 860.863281 C 539.308594 865.554688 540.246094 870.433594 541.183594 875.125 C 541.371094 876.0625 541.558594 876.8125 541.746094 877.75 C 542.683594 882.816406 544 887.882812 545.125 892.949219 C 545.125 892.574219 544.9375 892.199219 544.9375 892.011719 C 544.9375 892.199219 544.9375 892.386719 544.9375 892.386719 C 546.0625 897.261719 543.246094 902.140625 538.371094 903.453125 C 537.617188 903.644531 536.867188 903.644531 536.117188 903.644531 C 531.425781 903.453125 527.863281 900.640625 526.738281 896.699219 Z M 470.261719 869.308594 C 465.382812 868.554688 461.816406 864.054688 462.570312 858.988281 C 463.320312 854.296875 467.445312 850.917969 472.136719 851.292969 C 475.515625 851.105469 479.078125 850.542969 482.457031 850.167969 C 486.210938 849.792969 490.148438 849.417969 493.902344 848.667969 C 497.65625 847.917969 501.21875 847.355469 504.972656 846.792969 C 508.347656 846.230469 511.726562 846.042969 515.105469 845.476562 C 519.980469 844.914062 524.671875 848.480469 525.234375 853.359375 C 525.796875 858.238281 522.234375 862.925781 517.355469 863.492188 C 513.601562 864.054688 509.851562 864.242188 506.097656 864.992188 C 502.34375 865.742188 498.40625 866.492188 494.464844 867.054688 C 490.148438 867.617188 485.835938 867.992188 481.519531 868.554688 C 479.453125 868.742188 477.390625 869.121094 475.515625 869.308594 C 474.390625 869.308594 473.261719 869.496094 472.136719 869.496094 C 471.386719 869.496094 470.824219 869.308594 470.261719 869.308594 Z M 639.125 869.496094 C 637.8125 863.304688 637.0625 857.300781 636.5 851.105469 C 635.746094 844.726562 635.183594 838.535156 634.621094 832.15625 C 634.058594 825.777344 633.683594 820.148438 633.121094 813.957031 C 632.933594 810.957031 632.558594 807.953125 632.183594 804.953125 C 631.808594 801.949219 631.808594 798.382812 631.621094 795.195312 C 631.621094 793.882812 631.433594 792.566406 631.433594 791.253906 C 631.433594 790.128906 631.621094 789.191406 631.996094 788.066406 C 633.121094 783.1875 638 780.183594 642.878906 781.308594 C 647.566406 782.4375 650.570312 786.9375 649.820312 791.628906 C 649.820312 791.816406 649.820312 791.816406 649.820312 792.003906 L 649.820312 792.191406 C 649.820312 793.128906 650.007812 794.070312 650.007812 795.007812 L 650.007812 793.882812 C 650.195312 795.945312 650.195312 798.007812 650.382812 800.074219 C 650.757812 805.140625 651.320312 810.203125 651.695312 815.269531 C 652.070312 820.898438 652.445312 826.339844 653.195312 831.96875 C 654.324219 842.476562 655.074219 853.171875 656.949219 863.492188 C 656.949219 863.867188 657.136719 864.429688 657.136719 864.804688 C 658.261719 869.683594 655.449219 874.75 650.382812 875.875 C 649.632812 876.0625 648.882812 876.0625 648.132812 876.0625 C 643.816406 876.4375 640.25 873.621094 639.125 869.496094 Z M 647.378906 824.464844 C 646.253906 819.585938 649.070312 814.707031 653.949219 813.394531 C 656.761719 812.832031 659.765625 812.082031 662.578125 811.144531 C 663.703125 810.765625 664.828125 810.203125 665.957031 809.828125 L 666.519531 809.640625 C 666.519531 808.703125 666.519531 807.765625 666.519531 807.015625 C 666.519531 806.265625 666.332031 804.761719 666.144531 803.636719 C 665.957031 802.886719 665.769531 802.136719 665.582031 801.386719 C 665.394531 800.636719 665.203125 800.449219 665.015625 799.886719 C 664.828125 799.324219 664.265625 798.570312 663.890625 797.820312 C 663.703125 797.632812 663.515625 797.445312 663.328125 797.070312 C 663.140625 796.695312 662.765625 796.507812 662.578125 796.320312 C 662.390625 796.132812 661.640625 795.570312 661.078125 795.007812 C 660.515625 794.445312 659.953125 794.257812 659.390625 794.070312 C 658.824219 793.882812 658.261719 793.507812 657.699219 793.316406 L 655.824219 792.753906 L 653.761719 792.753906 L 652.820312 792.941406 L 650.757812 793.507812 L 650.570312 793.695312 C 647.753906 797.820312 642.128906 798.945312 638 796.132812 C 634.996094 794.257812 633.496094 790.691406 634.058594 787.3125 C 634.058594 786.75 634.246094 786 634.433594 785.4375 C 635.558594 782.4375 637.625 779.996094 640.4375 778.496094 C 644.191406 776.246094 648.507812 775.117188 653.007812 774.929688 C 663.140625 774.742188 672.523438 779.433594 678.527344 787.5 C 683.40625 794.070312 684.90625 802.511719 684.71875 810.578125 C 684.71875 813.582031 683.96875 816.582031 682.464844 819.210938 C 680.402344 822.589844 677.214844 825.214844 673.460938 826.714844 C 670.269531 828.214844 666.894531 829.34375 663.328125 830.28125 C 661.828125 830.65625 660.140625 831.03125 658.636719 831.40625 C 657.886719 831.59375 657.136719 831.59375 656.574219 831.59375 C 652.257812 831.40625 648.507812 828.59375 647.378906 824.464844 Z M 699.164062 864.429688 C 697.101562 863.492188 695.226562 862.550781 693.347656 861.425781 C 688.472656 858.988281 683.78125 856.359375 679.277344 853.546875 C 674.585938 850.355469 670.457031 846.792969 665.957031 843.601562 C 662.203125 841.164062 658.449219 838.722656 654.699219 836.285156 C 652.445312 834.972656 650.195312 833.46875 648.132812 831.96875 C 644.566406 829.34375 642.316406 825.402344 643.628906 820.898438 C 644.566406 817.898438 647.003906 815.457031 650.007812 814.707031 C 651.320312 814.519531 652.445312 814.332031 653.761719 814.519531 C 656.011719 814.707031 658.074219 816.019531 659.578125 817.898438 C 664.453125 821.273438 669.707031 824.089844 674.585938 827.464844 C 679.464844 830.84375 683.96875 834.410156 688.660156 837.785156 C 692.035156 840.039062 695.601562 842.101562 699.164062 843.976562 L 701.980469 845.476562 L 705.355469 847.355469 L 706.671875 847.917969 C 711.171875 849.980469 713.425781 855.234375 711.359375 859.738281 C 709.859375 863.117188 706.671875 865.179688 702.917969 865.179688 C 701.417969 865.179688 700.292969 864.992188 699.164062 864.429688 Z M 699.164062 864.429688 " fill-opacity="1" fill-rule="nonzero"/></g><g clip-path="url(#a3cd730cc4)"><g clip-path="url(#f8bfd2cd78)"><path fill="#ffffff" d="M 86.992188 85.078125 L 447.144531 -130.835938 L 540.199219 24.378906 L 180.046875 240.292969 Z M 86.992188 85.078125 " fill-opacity="1" fill-rule="nonzero"/></g></g><g clip-path="url(#2c17c0df55)"><g clip-path="url(#bdd1ea5d91)"><path fill="#ffffff" d="M 529.347656 -68.167969 L 789.8125 76.949219 L 728.097656 187.710938 L 467.636719 42.59375 Z M 529.347656 -68.167969 " fill-opacity="1" fill-rule="nonzero"/></g></g><g clip-path="url(#b1546ae0d7)"><path fill="#ffffff" d="M 132.667969 771.46875 L 767.082031 771.46875 L 767.082031 926.734375 L 132.667969 926.734375 Z M 132.667969 771.46875 " fill-opacity="1" fill-rule="nonzero"/></g></svg>