<svg xmlns="http://www.w3.org/2000/svg" xmlns:xlink="http://www.w3.org/1999/xlink" width="1200" zoomAndPan="magnify" viewBox="0 0 900 899.99999" height="1200" preserveAspectRatio="xMidYMid meet" version="1.2"><defs><clipPath id="c4bf390818"><path d="M 511 238 L 796.703125 238 L 796.703125 663 L 511 663 Z M 511 238 "/></clipPath></defs><g id="b0ee2dfe75"><path style=" stroke:none;fill-rule:nonzero;fill:#ff8200;fill-opacity:1;" d="M 572.222656 394.425781 C 573.246094 392.703125 573.265625 390.558594 572.273438 388.816406 C 571.28125 387.070312 569.429688 385.996094 567.421875 385.996094 L 382.710938 385.996094 C 380.464844 384.351562 376.308594 381.941406 369.179688 379.722656 C 355.042969 375.324219 335.363281 373.390625 310.6875 373.96875 C 282.898438 374.621094 246.355469 382.484375 207.667969 390.808594 C 175.179688 397.800781 141.589844 405.023438 108.496094 409.238281 C 105.4375 409.628906 103.273438 412.421875 103.664062 415.480469 C 104.023438 418.300781 106.425781 420.355469 109.195312 420.355469 C 109.429688 420.355469 109.667969 420.34375 109.90625 420.3125 C 143.472656 416.035156 177.300781 408.757812 210.015625 401.71875 C 248.175781 393.507812 284.214844 385.757812 310.949219 385.128906 C 338.691406 384.476562 355.097656 387.320312 363.976562 389.820312 C 370.054688 391.53125 373.507812 393.3125 375.234375 394.398438 C 375.703125 400.304688 377.65625 406.050781 381.058594 411.515625 C 384.972656 417.800781 390.613281 423.382812 397.828125 428.101562 C 413.273438 438.207031 434.683594 443.550781 459.742188 443.550781 C 484.59375 443.550781 508.921875 438.359375 530.097656 428.535156 C 549.5625 419.511719 564.519531 407.394531 572.222656 394.425781 Z M 403.941406 418.765625 C 394.828125 412.800781 388.867188 405.144531 386.949219 397.160156 L 556.207031 397.160156 C 539.191406 415.464844 503.097656 432.390625 459.742188 432.390625 C 430.835938 432.390625 413.441406 424.980469 403.941406 418.765625 Z M 403.941406 418.765625 "/><path style=" stroke:none;fill-rule:nonzero;fill:#ff8200;fill-opacity:1;" d="M 416.363281 376.867188 C 416.605469 376.605469 440.71875 350.625 469.601562 350.625 C 484.457031 350.625 498.035156 357.648438 506.808594 363.542969 C 516.585938 370.109375 522.785156 376.804688 522.839844 376.867188 C 523.941406 378.070312 525.449219 378.679688 526.960938 378.679688 C 528.304688 378.679688 529.65625 378.195312 530.726562 377.214844 C 533 375.132812 533.152344 371.605469 531.074219 369.332031 C 530.792969 369.023438 524.082031 361.746094 513.285156 354.445312 C 498.777344 344.644531 483.671875 339.460938 469.605469 339.460938 C 455.535156 339.460938 440.429688 344.644531 425.925781 354.445312 C 415.121094 361.746094 408.414062 369.023438 408.136719 369.332031 C 406.054688 371.605469 406.210938 375.132812 408.484375 377.214844 C 410.753906 379.296875 414.285156 379.140625 416.363281 376.867188 Z M 416.363281 376.867188 "/><g clip-rule="nonzero" clip-path="url(#c4bf390818)"><path style=" stroke:none;fill-rule:nonzero;fill:#ff8200;fill-opacity:1;" d="M 796.375 430.769531 C 795.714844 404.886719 792.226562 379.503906 784.816406 355.300781 C 778.167969 333.582031 768.863281 313.269531 757.160156 294.929688 C 747.074219 279.117188 735.539062 265.398438 723.800781 255.253906 C 712.488281 245.476562 702.011719 239.835938 693.496094 238.933594 C 675.125 236.996094 664.238281 242.152344 657.035156 245.566406 C 654.839844 246.605469 652.355469 247.785156 651.34375 247.789062 C 651.332031 247.789062 651.324219 247.785156 651.3125 247.785156 C 651.304688 247.785156 651.292969 247.789062 651.285156 247.789062 C 650.269531 247.785156 647.78125 246.605469 645.589844 245.566406 C 638.386719 242.15625 627.503906 236.996094 609.128906 238.933594 C 600.617188 239.832031 590.140625 245.476562 578.824219 255.253906 C 567.089844 265.398438 555.550781 279.117188 545.464844 294.929688 C 537.539062 307.351562 530.714844 320.675781 525.070312 334.734375 C 523.941406 337.542969 525.15625 340.75 527.863281 342.113281 L 527.925781 342.144531 C 530.96875 343.675781 534.679688 342.285156 535.945312 339.125 C 541.292969 325.761719 547.769531 313.035156 555.3125 301.214844 C 564.800781 286.347656 575.570312 273.511719 586.464844 264.097656 C 595.691406 256.121094 604.398438 251.1875 610.355469 250.558594 C 625.460938 248.964844 634.199219 253.101562 640.582031 256.125 C 644.265625 257.871094 647.460938 259.378906 650.976562 259.464844 C 651.0625 259.46875 651.144531 259.46875 651.230469 259.472656 C 651.246094 259.472656 651.261719 259.472656 651.277344 259.472656 C 651.28125 259.472656 651.28125 259.472656 651.28125 259.472656 C 651.285156 259.472656 651.285156 259.472656 651.285156 259.472656 C 651.292969 259.472656 651.304688 259.472656 651.3125 259.472656 C 651.316406 259.472656 651.328125 259.472656 651.335938 259.472656 C 651.335938 259.472656 651.335938 259.472656 651.339844 259.472656 C 651.34375 259.472656 651.34375 259.472656 651.34375 259.472656 C 651.359375 259.472656 651.375 259.472656 651.390625 259.472656 C 651.476562 259.472656 651.5625 259.46875 651.644531 259.464844 C 655.160156 259.378906 658.355469 257.871094 662.039062 256.125 C 668.421875 253.101562 677.160156 248.964844 692.269531 250.558594 C 698.222656 251.1875 706.929688 256.121094 716.15625 264.097656 C 727.050781 273.511719 737.824219 286.347656 747.308594 301.214844 C 759.5625 320.417969 769.015625 342.007812 775.351562 364.835938 C 774.777344 363.734375 774.191406 362.632812 773.589844 361.527344 C 762.132812 340.613281 747.417969 323.917969 729.851562 311.90625 C 707.867188 296.878906 681.464844 289.253906 651.378906 289.246094 C 651.367188 289.246094 651.355469 289.246094 651.34375 289.246094 C 651.34375 289.246094 651.34375 289.246094 651.339844 289.246094 C 651.335938 289.246094 651.335938 289.246094 651.335938 289.246094 C 651.328125 289.246094 651.316406 289.246094 651.3125 289.246094 C 651.304688 289.246094 651.292969 289.246094 651.285156 289.246094 C 651.285156 289.246094 651.285156 289.246094 651.28125 289.246094 C 651.28125 289.246094 651.28125 289.246094 651.277344 289.246094 C 651.265625 289.246094 651.253906 289.246094 651.242188 289.246094 C 621.15625 289.253906 594.753906 296.878906 572.773438 311.90625 C 561.238281 319.789062 550.9375 329.691406 541.980469 341.480469 C 539.773438 344.386719 540.738281 348.585938 544 350.222656 C 546.507812 351.484375 549.566406 350.777344 551.257812 348.535156 C 555.46875 342.96875 559.976562 337.882812 564.78125 333.289062 C 568.097656 338.34375 573.976562 341.5625 580.375 341.5625 L 596.824219 341.5625 C 600.609375 341.5625 604.128906 340.464844 607.054688 338.578125 C 609.914062 342.5 614.316406 345.019531 619.242188 345.019531 L 641.621094 345.019531 C 645.265625 345.019531 648.621094 343.636719 651.28125 341.332031 C 651.292969 341.339844 651.300781 341.347656 651.3125 341.355469 C 651.320312 341.347656 651.332031 341.339844 651.339844 341.332031 C 654 343.636719 657.355469 345.019531 661.003906 345.019531 L 683.378906 345.019531 C 688.308594 345.019531 692.707031 342.503906 695.566406 338.578125 C 698.492188 340.460938 702.011719 341.5625 705.796875 341.5625 L 722.25 341.5625 C 728.644531 341.5625 734.527344 338.34375 737.84375 333.289062 C 747.484375 342.511719 755.933594 353.691406 763.160156 366.816406 C 772.679688 384.105469 778.03125 401.445312 780.84375 412.945312 C 783.117188 422.230469 784.144531 429.316406 784.53125 432.402344 C 784.539062 432.476562 784.550781 432.542969 784.558594 432.613281 C 779.09375 440.707031 773.160156 447.78125 766.929688 453.984375 C 761.757812 450.523438 745.960938 440.394531 726.324219 432.148438 C 712.316406 426.269531 699.265625 422.589844 687.53125 421.214844 C 673.59375 419.582031 661.429688 421.195312 651.3125 426.011719 C 641.191406 421.199219 629.027344 419.582031 615.089844 421.214844 C 603.355469 422.589844 590.304688 426.269531 576.300781 432.148438 C 556.660156 440.394531 540.863281 450.523438 535.691406 453.984375 C 535.191406 453.484375 534.691406 452.980469 534.191406 452.46875 C 532.226562 450.449219 529.066406 450.210938 526.820312 451.914062 C 524.140625 453.949219 523.867188 457.863281 526.210938 460.269531 C 527.960938 462.070312 529.753906 463.820312 531.585938 465.523438 C 531.683594 473.65625 531.996094 481.679688 532.511719 489.566406 C 528.203125 481.566406 524.75 473.269531 522.238281 464.863281 C 521.125 461.125 516.628906 459.640625 513.519531 462 C 511.667969 463.40625 510.875 465.816406 511.542969 468.046875 C 513.210938 473.601562 515.269531 479.128906 517.691406 484.5625 C 522.175781 494.613281 527.964844 504.382812 534.78125 513.484375 C 535.460938 518.914062 536.242188 524.261719 537.132812 529.515625 C 541.324219 554.261719 547.761719 576.148438 556.261719 594.566406 C 565.957031 615.578125 578.335938 632.011719 593.050781 643.414062 C 609.632812 656.261719 629.234375 662.773438 651.308594 662.773438 C 673.382812 662.773438 692.980469 656.257812 709.566406 643.414062 C 724.28125 632.011719 736.660156 615.578125 746.355469 594.566406 C 754.855469 576.148438 761.289062 554.261719 765.488281 529.515625 C 766.378906 524.261719 767.160156 518.914062 767.835938 513.484375 C 774.652344 504.382812 780.4375 494.613281 784.925781 484.5625 C 788.613281 476.292969 791.453125 467.804688 793.367188 459.332031 C 795.226562 451.089844 796.214844 442.820312 796.3125 434.726562 C 796.316406 434.726562 796.398438 431.722656 796.375 430.769531 Z M 603.53125 319.777344 L 603.53125 323.964844 C 603.53125 327.222656 600.523438 329.875 596.828125 329.875 L 580.375 329.875 C 577.503906 329.875 574.949219 328.257812 574.023438 325.855469 C 573.96875 325.71875 573.910156 325.585938 573.851562 325.457031 C 582.855469 318.472656 592.753906 312.972656 603.53125 308.96875 Z M 645.453125 327.933594 C 645.453125 330.816406 643.699219 333.253906 641.625 333.253906 L 619.246094 333.253906 C 617.171875 333.253906 615.417969 330.816406 615.417969 327.933594 L 615.21875 308.527344 L 615.21875 305.296875 C 624.585938 302.867188 634.542969 301.449219 645.078125 301.050781 L 645.457031 301.050781 L 645.457031 327.933594 Z M 687.414062 308.527344 L 687.214844 327.933594 C 687.214844 330.816406 685.460938 333.253906 683.386719 333.253906 L 661.007812 333.253906 C 658.933594 333.253906 657.175781 330.816406 657.175781 327.933594 L 657.175781 301.050781 L 657.554688 301.050781 C 668.089844 301.449219 678.046875 302.867188 687.414062 305.296875 Z M 728.605469 325.855469 C 727.679688 328.257812 725.125 329.875 722.253906 329.875 L 705.800781 329.875 C 702.105469 329.875 699.097656 327.222656 699.097656 323.964844 L 699.097656 308.96875 C 709.875 312.972656 719.773438 318.472656 728.777344 325.457031 C 728.71875 325.585938 728.660156 325.71875 728.605469 325.855469 Z M 736.226562 589.890625 C 717.328125 630.847656 688.761719 651.613281 651.316406 651.613281 C 613.871094 651.613281 585.300781 630.847656 566.40625 589.890625 C 551.425781 557.425781 543.042969 512.363281 542.722656 462.722656 C 554.90625 454.71875 610.964844 420.042969 645.734375 435.71875 L 645.734375 501.207031 C 645.734375 504.289062 648.234375 506.789062 651.316406 506.789062 C 654.398438 506.789062 656.894531 504.289062 656.894531 501.207031 L 656.894531 435.71875 C 691.628906 420.074219 747.71875 454.722656 759.90625 462.726562 C 759.585938 512.367188 751.207031 557.425781 736.226562 589.890625 Z M 770.109375 489.566406 C 770.628906 481.679688 770.941406 473.65625 771.039062 465.519531 C 775.367188 461.5 779.476562 457.207031 783.339844 452.660156 C 781.011719 465.199219 776.496094 477.710938 770.109375 489.566406 Z M 770.109375 489.566406 "/></g></g></svg>