<?xml version="1.0" encoding="UTF-8"?>
<svg id="Calque_1" xmlns="http://www.w3.org/2000/svg" viewBox="0 0 57.78 76.8">
  <defs>
    <style>
      .cls-1 {
        fill: #4e986d;
      }
    </style>
  </defs>
  <path class="cls-1" d="M27.63,15.85c-.84,19.84-.43,39.72,1.21,59.51.16,1.91,3.16,1.93,3,0-1.64-19.79-2.05-39.67-1.21-59.51.08-1.93-2.92-1.93-3,0h0Z"/>
  <path class="cls-1" d="M1.08,44.05c18.23,3.19,36.78,4.31,55.25,3.27,1.92-.11,1.93-3.11,0-3-18.2,1.02-36.5-.02-54.46-3.16-1.89-.33-2.7,2.56-.8,2.89h0Z"/>
  <path class="cls-1" d="M46.03,14.65l-6.56,11.37c-.37.64.09,1.44.83,1.44h13.13c.74,0,1.2-.8.83-1.44l-6.56-11.37c-.37-.64-1.29-.64-1.66,0Z"/>
  <path class="cls-1" d="M46.03.48l-6.56,11.37c-.37.64.09,1.44.83,1.44h13.13c.74,0,1.2-.8.83-1.44L47.69.48c-.37-.64-1.29-.64-1.66,0Z"/>
</svg>