<?xml version="1.0" encoding="UTF-8"?>
<svg id="Calque_1" xmlns="http://www.w3.org/2000/svg" viewBox="0 0 90.51 94.76">
  <defs>
    <style>
      .cls-1 {
        fill: #c42923;
      }

      .cls-2 {
        fill: #f9d4cf;
      }
    </style>
  </defs>
  <path class="cls-2" d="M45.39,0C17.92,0,0,18.85,0,47.38s17.92,47.38,45.12,47.38,45.12-18.58,45.39-47.38C90.25,18.85,72.46,0,45.39,0Z"/>
  <g>
    <path class="cls-1" d="M21.2,20.91c12.81,13.08,24.96,26.81,36.38,41.13,3.29,4.12,6.51,8.3,9.68,12.52.92,1.22,3,.03,2.07-1.21-11.1-14.79-22.93-29.03-35.47-42.61-3.59-3.89-7.25-7.73-10.96-11.52-1.08-1.11-2.78.59-1.7,1.7h0Z"/>
    <path class="cls-1" d="M67.62,19.66c-13.51,12.53-25.75,26.39-36.51,41.35-3.07,4.27-6.02,8.64-8.85,13.08-.83,1.31,1.24,2.51,2.07,1.21,9.82-15.43,21.17-29.87,33.86-43.04,3.6-3.74,7.31-7.37,11.12-10.9,1.14-1.05-.57-2.75-1.7-1.7h0Z"/>
  </g>
</svg>