<?xml version="1.0" encoding="UTF-8"?>
<svg id="Calque_1" xmlns="http://www.w3.org/2000/svg" viewBox="0 0 90.51 94.76">
  <defs>
    <style>
      .cls-1 {
        fill: #ff8200;
        stroke: #ff8200;
        stroke-miterlimit: 10;
      }

      .cls-2 {
        fill: #ffeca7;
      }
    </style>
  </defs>
  <path class="cls-2" d="M45.39,0C17.92,0,0,18.85,0,47.38s17.92,47.38,45.12,47.38,45.12-18.58,45.39-47.38C90.25,18.85,72.46,0,45.39,0Z"/>
  <g>
    <path class="cls-1" d="M25.08,20.03c.02.44.07.89.04,1.33-.11,1.65.11,3.26.41,4.87.17.95.24,1.92.45,2.86.21.93.46,1.88.84,2.75.8,1.82,1.91,3.44,3.15,5.01,1.01,1.28,2.21,2.22,3.57,3.04.89.54,1.69,1.22,2.56,1.8,1.36.91,2.7,1.84,4.11,2.66,1.53.9,2.69,3.27,2.36,4.86-.1.5-.29.91-.66,1.24-.55.51-1.06,1.06-1.65,1.52-.74.57-1.49,1.16-2.31,1.57-1.11.55-1.93,1.43-2.86,2.19-.44.35-.84.75-1.27,1.11-1.41,1.17-2.62,2.54-3.73,3.98-.96,1.24-1.7,2.65-2.53,3.99-.53.86-.73,1.8-.81,2.81-.12,1.36-.38,2.7-.57,4.05-.03.18-.07.39-.02.56.19.52-.08.94-.27,1.38-.05.11-.25.25-.34.22-.11-.03-.26-.21-.27-.33-.03-.69-.09-1.4-.02-2.08.18-1.57.47-3.12.64-4.69.07-.67.35-1.22.63-1.8.86-1.79,1.92-3.46,3.17-5.01,1.48-1.84,3.11-3.53,5.05-4.9.21-.15.35-.41.56-.58.54-.43,1.07-.89,1.66-1.24,1.22-.73,2.43-1.46,3.37-2.55.21-.24.47-.44.71-.65.53-.45.65-1.03.49-1.67-.38-1.55-1.15-2.75-2.67-3.5-1.19-.58-2.26-1.41-3.36-2.17-1.51-1.05-3-2.13-4.5-3.2-.24-.17-.49-.34-.68-.56-1.88-2.17-3.63-4.44-4.62-7.18-.28-.77-.46-1.6-.59-2.41-.26-1.69-.46-3.39-.67-5.09-.15-1.2-.01-2.4.16-3.59.03-.22.18-.42.27-.63.08.01.16.03.24.04Z"/>
    <path class="cls-1" d="M65.17,20.03c0,.44-.05.89-.01,1.33.15,1.64-.04,3.26-.3,4.88-.15.95-.19,1.92-.38,2.86-.19.94-.41,1.89-.78,2.77-.76,1.83-1.84,3.48-3.04,5.07-.98,1.3-2.16,2.26-3.5,3.12-.88.56-1.67,1.25-2.52,1.85-1.34.94-2.66,1.9-4.05,2.75-1.51.93-2.62,3.32-2.25,4.91.11.49.31.9.69,1.23.56.49,1.09,1.04,1.69,1.48.75.55,1.51,1.12,2.35,1.52,1.12.53,1.96,1.39,2.9,2.12.44.34.85.73,1.29,1.08,1.43,1.14,2.68,2.48,3.82,3.89.99,1.22,1.76,2.61,2.62,3.93.55.85.77,1.79.87,2.79.15,1.35.44,2.69.66,4.03.03.18.08.39.03.55-.18.53.11.94.3,1.37.05.11.26.24.35.22.11-.03.26-.22.26-.34.02-.69.06-1.4-.03-2.08-.21-1.56-.54-3.11-.74-4.68-.09-.67-.38-1.21-.67-1.78-.9-1.77-2-3.42-3.28-4.94-1.52-1.81-3.18-3.46-5.15-4.79-.22-.15-.36-.4-.57-.56-.55-.42-1.09-.86-1.68-1.21-1.23-.71-2.46-1.41-3.43-2.47-.21-.24-.48-.43-.72-.63-.54-.44-.67-1.02-.53-1.66.35-1.56,1.09-2.78,2.59-3.56,1.18-.61,2.23-1.46,3.31-2.24,1.49-1.08,2.96-2.19,4.43-3.29.23-.18.48-.35.67-.57,1.83-2.21,3.53-4.52,4.46-7.28.26-.78.43-1.61.53-2.43.22-1.7.39-3.4.56-5.11.12-1.21-.04-2.4-.24-3.58-.04-.22-.19-.41-.28-.62-.08.02-.16.03-.24.05Z"/>
    <path class="cls-1" d="M26.68,14.25c1.67-.02,3.33.17,5-.19.71-.15,1.47-.09,2.2-.11,2.78-.05,5.55-.1,8.33-.13,2.47-.03,4.94-.04,7.41-.04,1.53,0,3.07.03,4.6.04,1.28.01,2.55.03,3.83.04.51,0,1.02-.05,1.53-.05,1.67-.01,3.28.29,4.73,1.16,1.18.71,1.45,1.45,1.18,2.79-.09.44-.11.89-.17,1.38-.46.38-.94.82-1.47,1.18-.29.2-.66.34-1.01.42-1.58.39-3.2.38-4.81.49-.56.04-1.12.13-1.69.16-1.22.07-2.43.15-3.65.17-1.59.03-3.18,0-4.76,0-1.65,0-3.29.01-4.94.04-1.08.01-2.15.09-3.23.08-1.42,0-2.84-.06-4.25-.11-1.7-.06-3.4-.13-5.09-.21-1.16-.05-2.32-.13-3.48-.2-.19-.01-.44-.01-.57-.13-.66-.56-1.5-.99-1.84-1.84-.38-.93-.27-1.89.04-2.83.22-.66.63-1.12,1.23-1.44.31-.17.57-.44.91-.7ZM52.78,20.56s0-.08,0-.12c1.22-.04,2.44-.17,3.66-.12,2.09.09,4.13-.21,6.15-.7,1.03-.25,1.71-.76,1.92-1.88.17-.9.15-1.33-.62-1.79-1.13-.67-2.33-1.17-3.7-1.11-.76.04-1.52.06-2.28.05-.85-.02-1.69-.11-2.53-.13-1.44-.03-2.88-.04-4.32-.04-2.13,0-4.25.04-6.38.04-.73,0-1.47-.12-2.2-.1-2.01.05-4.03.15-6.04.23-.42.02-.85.11-1.27.08-1.53-.09-3.05-.1-4.58.13-.84.13-1.7.05-2.54.14-1.58.18-2.54.82-2.67,2.42-.08,1.05.93,2.38,1.98,2.48.56.05,1.13.07,1.69.1,2.72.17,5.43.43,8.15.48,3.23.06,6.47-.06,9.7-.11.45,0,.91-.07,1.36-.07,1.5,0,3.01.02,4.51.03Z"/>
    <path class="cls-1" d="M27.35,73.6c1.67-.03,3.33.15,5-.23.71-.16,1.47-.1,2.2-.12,2.77-.07,5.55-.14,8.32-.18,2.47-.04,4.94-.07,7.4-.09,1.53-.01,3.07,0,4.6.01,1.28,0,2.55.02,3.83.01.51,0,1.02-.05,1.53-.06,1.67-.02,3.28.27,4.73,1.13,1.18.7,1.46,1.44,1.2,2.78-.08.44-.11.89-.16,1.38-.46.38-.94.82-1.47,1.19-.29.21-.66.34-1.01.43-1.58.4-3.2.41-4.81.52-.56.04-1.12.13-1.69.17-1.22.08-2.43.16-3.65.19-1.59.04-3.18.03-4.76.04-1.65.02-3.29.04-4.94.07-1.08.02-2.15.1-3.23.1-1.42,0-2.84-.04-4.25-.08-1.7-.05-3.4-.11-5.1-.17-1.16-.05-2.32-.11-3.48-.18-.19-.01-.44-.01-.57-.12-.67-.56-1.51-.98-1.86-1.82-.38-.93-.28-1.89.02-2.83.21-.66.62-1.12,1.22-1.45.31-.17.57-.44.9-.71ZM53.49,79.73s0-.08,0-.12c1.22-.05,2.44-.18,3.66-.14,2.1.07,4.13-.24,6.15-.75,1.03-.26,1.71-.77,1.91-1.9.16-.91.14-1.34-.63-1.79-1.13-.66-2.34-1.16-3.7-1.08-.76.04-1.52.07-2.28.06-.85-.01-1.69-.1-2.53-.11-1.44-.02-2.88-.02-4.32-.01-2.13.02-4.25.07-6.38.08-.73,0-1.47-.11-2.2-.09-2.01.07-4.02.18-6.04.28-.42.02-.85.11-1.27.09-1.53-.08-3.05-.08-4.58.16-.84.13-1.7.06-2.54.16-1.58.19-2.54.84-2.66,2.44-.08,1.05.95,2.37,2,2.46.56.05,1.13.06,1.69.09,2.72.15,5.43.39,8.15.42,3.23.04,6.47-.11,9.7-.18.45-.01.91-.07,1.36-.08,1.5,0,3.01,0,4.51,0Z"/>
  </g>
</svg>