<svg xmlns="http://www.w3.org/2000/svg" xmlns:xlink="http://www.w3.org/1999/xlink" width="1200" zoomAndPan="magnify" viewBox="0 0 900 899.99999" height="1200" preserveAspectRatio="xMidYMid meet" version="1.2"><g id="40f941fb8a"><path style=" stroke:none;fill-rule:nonzero;fill:#ff8200;fill-opacity:1;" d="M 411.203125 271.972656 C 427.292969 280.230469 446.464844 283.308594 463.816406 277.429688 C 482.289062 271.132812 496.285156 257.699219 507.199219 241.746094 C 528.886719 209.703125 537.003906 163.941406 512.234375 131.195312 C 498.523438 113.003906 476.691406 104.75 454.300781 105.027344 C 442.96875 105.167969 431.632812 107.40625 420.859375 110.625 C 408.261719 114.40625 398.609375 118.324219 393.429688 131.058594 C 393.011719 131.898438 393.148438 133.015625 393.429688 133.996094 C 383.074219 146.308594 375.519531 162.125 371.878906 175.417969 C 361.664062 212.359375 376.359375 254.0625 411.203125 271.972656 Z M 481.871094 140.011719 C 505.519531 156.386719 498.800781 187.730469 488.167969 209.5625 C 482.570312 221.175781 475.292969 233.351562 464.65625 241.1875 C 455.703125 247.625 445.765625 249.582031 436.671875 247.484375 C 413.441406 241.886719 400.007812 220.476562 400.707031 196.828125 C 401.125 181.714844 405.605469 167.019531 413.160156 153.867188 C 415.820312 149.25 419.039062 143.929688 422.675781 139.035156 C 429.535156 136.933594 436.390625 134.695312 443.527344 133.574219 C 456.402344 131.476562 470.953125 132.457031 481.871094 140.011719 Z M 481.871094 140.011719 "/><path style=" stroke:none;fill-rule:nonzero;fill:#ff8200;fill-opacity:1;" d="M 581.785156 439.757812 C 582.625 414.289062 585.003906 387.140625 575.347656 362.933594 C 556.457031 315.773438 499.082031 310.734375 455.140625 308.078125 C 405.183594 305.136719 349.488281 315.351562 319.125 359.292969 C 304.289062 380.703125 299.8125 408.132812 299.394531 433.601562 C 299.113281 447.59375 300.652344 461.726562 301.910156 475.722656 C 301.910156 475.722656 301.910156 475.722656 301.910156 475.859375 C 300.511719 495.871094 301.773438 515.742188 307.089844 535.054688 C 311.289062 550.585938 317.722656 567.9375 333.816406 574.375 C 341.511719 577.453125 350.609375 576.335938 357.1875 571.996094 C 357.046875 576.753906 356.765625 581.652344 356.488281 586.410156 C 354.386719 637.207031 352.707031 688.5625 354.808594 739.359375 C 355.925781 768.609375 367.261719 809.609375 404.90625 804.152344 C 433.171875 800.09375 444.085938 776.585938 449.125 751.394531 C 452.0625 760.492188 456.121094 769.167969 461.859375 776.445312 C 488.308594 809.75 526.507812 782.320312 530.847656 747.617188 C 533.925781 721.867188 531.128906 694.859375 530.707031 668.972656 C 530.289062 641.824219 529.867188 614.816406 529.449219 587.667969 C 529.308594 579.414062 529.167969 571.15625 529.027344 562.902344 C 533.367188 566.257812 538.683594 568.21875 544.140625 568.636719 C 566.8125 570.179688 576.605469 548.488281 578.566406 529.175781 C 581.226562 499.789062 580.664062 469.5625 581.785156 439.757812 Z M 558.695312 437.238281 C 557.855469 463.125 556.875 489.015625 556.035156 514.902344 C 555.757812 523.019531 557.15625 538.550781 549.738281 544.148438 C 544.839844 547.648438 538.125 543.171875 533.925781 539.953125 C 532.105469 538.550781 530.566406 538.414062 528.609375 539.25 C 528.46875 528.335938 528.328125 517.5625 528.050781 506.648438 C 527.628906 481.878906 531.546875 452.769531 520.492188 429.679688 C 519.371094 427.164062 514.894531 427.164062 513.777344 429.679688 C 506.21875 447.035156 508.039062 466.203125 508.316406 484.675781 C 508.738281 506.507812 509.019531 528.476562 509.4375 550.308594 C 510.136719 592.988281 510.976562 635.667969 511.675781 678.488281 C 511.957031 698.359375 513.355469 718.652344 512.515625 738.519531 C 511.957031 749.996094 509.71875 764.828125 498.382812 770.988281 C 487.328125 777.003906 478.511719 768.886719 472.914062 760.210938 C 461.859375 743.277344 457.101562 722.988281 454.023438 702.277344 C 455.839844 675.410156 457.101562 648.402344 457.382812 621.394531 C 457.800781 596.765625 461.300781 564.160156 448.703125 541.910156 C 447.445312 539.671875 443.527344 539.390625 442.269531 541.910156 C 432.613281 562.621094 435.691406 589.910156 435.550781 612.160156 C 435.410156 639.027344 434.570312 666.035156 433.03125 692.902344 C 431.632812 716.410156 433.871094 748.738281 420.996094 769.449219 C 413.722656 781.0625 397.347656 790.019531 386.011719 778.542969 C 379.296875 771.828125 377.199219 761.191406 375.796875 752.234375 C 372.160156 728.304688 373.558594 702.976562 373.140625 678.769531 C 372.71875 652.039062 372.859375 625.3125 373.277344 598.585938 C 373.699219 571.855469 374.679688 545.128906 375.796875 518.542969 C 376.917969 491.253906 379.296875 462.707031 377.058594 435.558594 C 376.777344 432.0625 371.601562 430.941406 370.621094 434.71875 C 364.601562 457.808594 363.34375 482.578125 360.964844 506.226562 C 359.425781 521.339844 358.585938 536.453125 357.746094 551.707031 C 354.246094 552.964844 351.589844 556.324219 347.949219 557.582031 C 342.492188 559.542969 338.296875 556.464844 335.214844 552.125 C 326.679688 540.511719 323.601562 523.578125 321.921875 509.445312 C 325 495.730469 322.761719 479.5 322.203125 466.066406 C 322.34375 464.105469 322.480469 462.285156 322.480469 460.328125 C 322.761719 454.449219 322.34375 448.574219 321.644531 442.835938 C 321.644531 430.941406 322.0625 418.90625 324.300781 407.292969 C 331.578125 369.230469 357.886719 344.179688 395.25 334.804688 C 416.9375 329.347656 439.609375 329.628906 461.859375 331.304688 C 480.890625 332.84375 500.339844 334.664062 518.535156 340.820312 C 562.613281 355.65625 560.09375 398.753906 558.695312 437.238281 Z M 558.695312 437.238281 "/><path style=" stroke:none;fill-rule:nonzero;fill:#ff8200;fill-opacity:1;" d="M 210.953125 309.054688 C 226.207031 316.894531 244.398438 319.832031 260.910156 314.234375 C 278.402344 308.214844 291.695312 295.621094 301.910156 280.507812 C 322.34375 250.421875 329.757812 207.324219 306.390625 176.535156 C 293.375 159.324219 272.804688 151.488281 251.675781 151.769531 C 241.039062 151.90625 230.402344 154.007812 220.328125 157.085938 C 208.714844 160.582031 198.359375 164.363281 194.71875 176.957031 C 194.582031 177.375 194.582031 177.796875 194.582031 178.214844 C 184.644531 189.269531 177.789062 204.382812 174.007812 218.097656 C 164.074219 252.660156 178.066406 292.125 210.953125 309.054688 Z M 276.863281 186.050781 C 298.273438 201.027344 291.835938 229.433594 282.179688 249.304688 C 276.863281 260.359375 270.425781 271.132812 260.492188 278.410156 C 252.652344 284.148438 243.417969 285.828125 235.441406 284.007812 C 214.589844 279.109375 202.136719 260.21875 202.695312 237.96875 C 203.117188 223.976562 207.175781 210.542969 214.03125 198.507812 C 216.410156 194.449219 219.070312 189.691406 222.289062 185.351562 C 228.726562 183.535156 235.300781 181.15625 241.738281 180.175781 C 253.492188 178.214844 266.925781 179.054688 276.863281 186.050781 Z M 276.863281 186.050781 "/><path style=" stroke:none;fill-rule:nonzero;fill:#ff8200;fill-opacity:1;" d="M 308.347656 759.652344 C 302.191406 762.171875 299.394531 766.507812 294.496094 770.425781 C 290.714844 773.503906 285.679688 775.042969 280.921875 773.226562 C 271.125 769.308594 266.226562 756.851562 263.148438 747.617188 C 258.390625 732.785156 255.03125 717.25 252.652344 701.859375 C 253.773438 683.945312 254.472656 666.035156 255.03125 648.121094 C 255.734375 621.253906 261.050781 583.613281 246.777344 559.402344 C 245.378906 557.164062 241.597656 556.882812 240.339844 559.402344 C 231.105469 578.015625 233.761719 603.0625 233.621094 623.214844 C 233.621094 637.207031 233.203125 651.0625 232.78125 665.054688 C 232.503906 667.574219 232.503906 670.09375 232.503906 672.613281 C 232.222656 680.867188 231.945312 689.265625 231.382812 697.519531 C 230.125 719.910156 232.644531 751.253906 220.1875 770.847656 C 214.3125 779.941406 202.277344 788.339844 191.5 781.480469 C 183.664062 776.585938 181.144531 765.109375 179.605469 756.714844 C 175.828125 734.601562 177.226562 710.675781 176.949219 688.285156 C 176.527344 663.234375 176.527344 638.328125 176.949219 613.277344 C 177.367188 588.230469 178.207031 563.320312 179.1875 538.414062 C 180.167969 512.804688 182.265625 486.074219 180.167969 460.46875 C 179.886719 456.96875 174.710938 455.851562 173.730469 459.628906 C 165.753906 489.855469 164.214844 523.019531 162.394531 553.945312 C 162.113281 558.703125 161.976562 563.460938 161.695312 568.078125 C 160.714844 568.359375 159.734375 568.636719 159.035156 569.476562 C 141.683594 587.53125 132.589844 548.90625 129.648438 530.574219 C 131.328125 515.882812 130.488281 500.210938 129.789062 484.535156 C 129.789062 483.417969 129.929688 482.4375 129.929688 481.316406 C 130.070312 476.558594 129.789062 471.523438 129.089844 466.765625 C 128.671875 442.695312 130.910156 419.1875 145.460938 399.457031 C 157.917969 382.382812 178.066406 372.027344 198.21875 367.128906 C 210.8125 364.050781 223.6875 363.210938 236.5625 363.210938 C 243.277344 363.210938 249.996094 363.492188 256.710938 364.050781 C 263.847656 364.609375 270.984375 366.152344 277.84375 364.050781 C 286.097656 361.53125 288.199219 349.777344 280.222656 345.300781 C 273.503906 341.523438 265.949219 341.523438 258.390625 340.960938 C 250.554688 340.402344 242.71875 339.980469 234.882812 339.980469 C 220.609375 339.980469 206.054688 341.382812 192.0625 344.738281 C 168.273438 350.476562 145.183594 363.070312 129.789062 382.382812 C 113.835938 402.253906 107.960938 427.441406 106.699219 452.492188 C 105.859375 470.402344 106.699219 488.734375 108.660156 506.925781 C 108.238281 522.460938 109.777344 537.851562 113.835938 552.964844 C 117.753906 567.660156 123.914062 583.890625 139.164062 589.910156 C 146.164062 592.707031 154.417969 591.867188 160.574219 588.230469 C 159.597656 607.960938 158.898438 627.691406 158.476562 647.5625 C 157.777344 678.769531 157.078125 710.113281 158.195312 741.320312 C 158.757812 758.953125 160.855469 779.382812 173.589844 792.957031 C 186.742188 806.949219 206.894531 807.648438 222.566406 797.714844 C 236.980469 788.480469 243.558594 773.503906 246.917969 757.691406 C 248.035156 760.492188 249.015625 763.429688 250.273438 766.089844 C 256.570312 779.382812 267.765625 791.695312 283.300781 792.816406 C 297.851562 793.796875 320.664062 780.921875 315.90625 763.851562 C 315.066406 760.910156 311.425781 758.390625 308.347656 759.652344 Z M 308.347656 759.652344 "/><path style=" stroke:none;fill-rule:nonzero;fill:#ff8200;fill-opacity:1;" d="M 662.386719 314.234375 C 697.230469 303.179688 718.082031 268.613281 714.585938 232.652344 C 713.046875 216 704.507812 194.027344 691.355469 178.496094 C 691.355469 177.9375 691.355469 177.375 691.214844 176.816406 C 687.996094 166.042969 680.300781 161.84375 670.222656 158.484375 C 660.570312 155.265625 650.632812 153.027344 640.558594 152.046875 C 622.085938 150.367188 603.195312 154.707031 588.78125 166.601562 C 558.136719 191.648438 560.652344 238.109375 577.585938 270.015625 C 593.960938 300.800781 625.726562 325.847656 662.386719 314.234375 Z M 603.195312 191.089844 C 612.289062 180.734375 626.285156 178.496094 639.4375 179.476562 C 647.136719 180.035156 655.109375 183.113281 663.085938 185.351562 C 665.1875 188.292969 667.144531 191.230469 668.824219 194.027344 C 675.542969 204.523438 680.300781 216 682.257812 228.453125 C 685.617188 251.683594 678.0625 272.671875 656.929688 282.046875 C 649.234375 285.40625 640.136719 286.105469 632.023438 282.328125 C 621.945312 277.710938 614.53125 268.613281 608.792969 258.960938 C 597.039062 239.367188 585.984375 210.820312 603.195312 191.089844 Z M 603.195312 191.089844 "/><path style=" stroke:none;fill-rule:nonzero;fill:#ff8200;fill-opacity:1;" d="M 779.09375 454.03125 C 778.117188 428.5625 772.238281 402.675781 756.003906 382.523438 C 740.890625 363.773438 718.363281 351.316406 695.273438 345.300781 C 680.859375 341.660156 665.746094 340.121094 650.914062 340.121094 C 643.078125 340.121094 635.242188 340.542969 627.402344 341.101562 C 619.847656 341.660156 612.289062 341.660156 605.574219 345.441406 C 597.738281 349.917969 599.835938 361.671875 607.953125 364.191406 C 614.53125 366.152344 620.6875 364.75 627.402344 364.332031 C 634.121094 363.773438 640.835938 363.492188 647.554688 363.351562 C 660.988281 363.210938 674.421875 364.050781 687.578125 367.269531 C 707.867188 372.167969 727.738281 382.523438 740.332031 399.59375 C 754.746094 419.046875 757.125 442.414062 756.707031 466.203125 C 756.144531 470.964844 755.726562 475.722656 755.867188 480.339844 C 755.867188 481.878906 756.003906 483.417969 756.003906 484.957031 C 755.304688 500.628906 754.464844 516.023438 756.003906 530.714844 C 753.207031 549.046875 743.972656 587.671875 726.617188 569.617188 C 725.917969 568.777344 724.941406 568.5 723.960938 568.21875 C 723.679688 563.460938 723.539062 558.703125 723.261719 554.085938 C 721.441406 523.019531 719.902344 489.855469 711.925781 459.769531 C 710.945312 455.988281 705.769531 457.109375 705.488281 460.609375 C 703.390625 485.238281 705.488281 510.703125 706.328125 535.472656 C 707.167969 560.523438 708.289062 585.429688 708.707031 610.339844 C 709.125 635.386719 709.125 660.296875 708.847656 685.34375 C 708.566406 708.714844 710.105469 733.761719 706.1875 756.992188 C 704.789062 765.109375 702.550781 774.765625 695.972656 780.222656 C 686.175781 788.480469 674.144531 782.183594 667.425781 773.503906 C 653.292969 755.035156 655.8125 722.988281 654.550781 700.878906 C 653.992188 691.644531 653.710938 682.40625 653.292969 673.171875 C 653.292969 670.371094 653.152344 667.714844 652.871094 664.914062 C 652.453125 652.179688 652.171875 639.304688 652.171875 626.574219 C 652.03125 605.441406 655.113281 579.132812 645.457031 559.683594 C 644.195312 557.164062 640.417969 557.445312 639.019531 559.683594 C 624.746094 583.890625 630.0625 621.394531 630.761719 648.402344 C 631.183594 666.3125 632.023438 684.085938 633 702 C 630.621094 717.53125 627.265625 733.0625 622.507812 748.039062 C 619.566406 757.132812 614.667969 769.585938 605.152344 773.503906 C 600.535156 775.464844 595.636719 774.066406 591.71875 771.265625 C 589.339844 769.449219 587.660156 767.070312 585.5625 764.96875 C 583.042969 762.589844 580.523438 761.332031 577.308594 760.070312 C 574.226562 758.8125 570.449219 761.472656 569.609375 764.410156 C 564.992188 781.203125 586.960938 794.214844 601.375 793.515625 C 617.328125 792.816406 628.804688 780.363281 635.242188 766.789062 C 636.5 763.988281 637.621094 761.191406 638.597656 758.390625 C 641.957031 774.207031 648.535156 789.179688 662.949219 798.414062 C 678.621094 808.351562 698.773438 807.648438 711.925781 793.65625 C 724.660156 780.082031 726.757812 759.652344 727.320312 742.019531 C 728.4375 710.8125 727.738281 679.46875 727.039062 648.261719 C 726.617188 628.53125 725.78125 608.800781 724.941406 589.070312 C 730.816406 592.566406 738.511719 593.40625 745.230469 591.308594 C 761.183594 585.992188 767.621094 568.636719 771.679688 553.804688 C 775.738281 538.691406 777.277344 523.160156 776.855469 507.488281 C 778.953125 489.292969 779.792969 471.382812 779.09375 454.03125 Z M 779.09375 454.03125 "/></g></svg>